<svg width="24" height="24" viewBox="0 0 24 24" fill="none" xmlns="http://www.w3.org/2000/svg">
<path fill-rule="evenodd" clip-rule="evenodd" d="M12.0001 19.5001C7.86462 19.5001 4.50012 16.1363 4.50012 12.0001C4.50012 7.86382 7.86462 4.50007 12.0001 4.50007C16.1356 4.50007 19.5001 7.86382 19.5001 12.0001C19.5001 16.1363 16.1356 19.5001 12.0001 19.5001ZM12 3C7.03725 3 3 7.03875 3 12C3 16.9613 7.03725 21 12 21C16.9628 21 21 16.9613 21 12C21 7.03875 16.9628 3 12 3Z" fill="#617AF9"/>
<path fill-rule="evenodd" clip-rule="evenodd" d="M15.8673 11.2503H12.7499V8.13403C12.7499 7.71778 12.4139 7.38403 11.9999 7.38403C11.5859 7.38403 11.2499 7.71778 11.2499 8.13403V11.2503H8.13257C7.71819 11.2503 7.38257 11.5878 7.38257 12.0003C7.38257 12.4165 7.71819 12.7503 8.13257 12.7503H11.2499V15.8665C11.2499 16.2828 11.5859 16.6165 11.9999 16.6165C12.4139 16.6165 12.7499 16.2828 12.7499 15.8665V12.7503H15.8673C16.2817 12.7503 16.6173 12.4165 16.6173 12.0003C16.6173 11.5878 16.2817 11.2503 15.8673 11.2503Z" fill="#617AF9"/>
</svg>
