<svg width="24" height="24" viewBox="0 0 24 24" fill="none" xmlns="http://www.w3.org/2000/svg">
<path fill-rule="evenodd" clip-rule="evenodd" d="M5.7134 15.7129L9.60778 14.0947C9.62615 14.0874 9.6419 14.0729 9.65915 14.0656C10.3139 14.5383 11.122 14.8183 11.9999 14.8183C12.8778 14.8183 13.6859 14.5383 14.3407 14.0656C14.3579 14.0729 14.3737 14.0874 14.392 14.0947L18.286 15.7129C18.6314 15.8547 18.8789 16.1529 18.9483 16.5129L19.3447 18.5456H4.65515L5.05153 16.5129C5.1209 16.1529 5.3684 15.8547 5.7134 15.7129ZM9.5625 8.81825C9.5625 7.51643 10.656 6.45462 12 6.45462C13.344 6.45462 14.4375 7.51643 14.4375 8.81825V11.0001C14.4375 12.3055 13.344 13.3637 12 13.3637C10.656 13.3637 9.5625 12.3055 9.5625 11.0001V8.81825ZM20.829 19.7309C20.8429 19.7127 20.8582 19.6982 20.8703 19.68C20.8853 19.6618 20.8965 19.6364 20.9089 19.6145C20.919 19.5964 20.931 19.5782 20.9396 19.56C20.9479 19.5418 20.9524 19.52 20.9587 19.5018C20.9678 19.4764 20.9779 19.4509 20.9835 19.4218C20.9869 19.4073 20.9869 19.3927 20.9895 19.3745C20.994 19.3418 20.9993 19.3127 20.9993 19.28C20.9993 19.2764 21 19.2764 21 19.2727C21 19.2509 20.9951 19.2291 20.9932 19.2073C20.991 19.1855 20.9914 19.16 20.9869 19.1382L20.985 19.1273C20.985 19.1273 20.985 19.1273 20.9846 19.1273L20.4225 16.24C20.2598 15.4073 19.6823 14.7091 18.8771 14.3745L15.3949 12.9273C15.7376 12.36 15.9375 11.7055 15.9375 11V8.81818C15.9375 6.70909 14.1746 5 12 5C9.82538 5 8.0625 6.70909 8.0625 8.81818V11C8.0625 11.7055 8.26237 12.36 8.60512 12.9273L5.12287 14.3745C4.31775 14.7091 3.74025 15.4073 3.5775 16.24L3.01538 19.1273C3.015 19.1273 3.015 19.1273 3.015 19.1273L3.01313 19.1382C3.00825 19.16 3.009 19.1855 3.00675 19.2073C3.00487 19.2291 3 19.2509 3 19.2727C3 19.2764 3.00038 19.2764 3.00038 19.28C3.00075 19.3127 3.006 19.3418 3.0105 19.3745C3.01313 19.3927 3.01313 19.4073 3.01613 19.4218C3.02213 19.4509 3.03225 19.4764 3.04125 19.5018C3.04763 19.52 3.05212 19.5418 3.06037 19.56C3.069 19.5782 3.081 19.5964 3.09112 19.6145C3.1035 19.6364 3.11475 19.6618 3.12975 19.68C3.14175 19.6982 3.15712 19.7127 3.171 19.7309C3.1875 19.7491 3.2025 19.7709 3.22125 19.7891C3.23775 19.8036 3.25725 19.8182 3.27487 19.8327C3.294 19.8473 3.312 19.8655 3.33263 19.8764C3.348 19.8873 3.36525 19.8945 3.38137 19.9018C3.408 19.9164 3.43388 19.9345 3.46238 19.9455C3.4755 19.9491 3.48975 19.9527 3.50325 19.9564C3.537 19.9673 3.57037 19.9782 3.60637 19.9855C3.60787 19.9855 3.609 19.9891 3.6105 19.9891C3.65325 19.9964 3.69525 20 3.73725 20C3.74175 20 3.7455 20 3.75 20H20.25C20.2545 20 20.2582 20 20.2628 20C20.3044 20 20.3468 19.9964 20.3895 19.9891C20.391 19.9891 20.3921 19.9855 20.3936 19.9855C20.4296 19.9782 20.463 19.9673 20.4967 19.9564C20.5103 19.9527 20.5245 19.9491 20.5376 19.9455C20.5661 19.9345 20.592 19.9164 20.6186 19.9018C20.6348 19.8945 20.652 19.8873 20.6674 19.8764C20.688 19.8655 20.706 19.8473 20.7251 19.8327C20.7428 19.8182 20.7622 19.8036 20.7787 19.7891C20.7975 19.7709 20.8125 19.7491 20.829 19.7309Z" fill="#617AF9"/>
</svg>
