<svg width="20" height="20" viewBox="0 0 20 20" fill="none" xmlns="http://www.w3.org/2000/svg">
<g clip-path="url(#clip0)">
<path d="M19.7408 9.29891C19.5651 9.09176 15.3669 4.23291 10.0001 4.23291C4.63315 4.23291 0.435139 9.09176 0.259063 9.29912C-0.0863881 9.70529 -0.0863881 10.2946 0.259266 10.7012C0.435139 10.9084 4.63315 15.767 10.0001 15.767C15.3669 15.767 19.5651 10.908 19.741 10.7008C20.0864 10.2946 20.0864 9.70529 19.7408 9.29891ZM11.6394 7.15167C12.0003 6.95468 12.5036 7.18072 12.7633 7.65635C13.0231 8.13218 12.941 8.67767 12.5801 8.87466C12.2195 9.07186 11.716 8.84562 11.4561 8.36999C11.1965 7.89416 11.2784 7.34867 11.6394 7.15167ZM10.0001 14.0067C6.25114 14.0067 3.09619 11.1275 2.00419 9.99997C2.7416 9.23839 4.42052 7.67889 6.58725 6.74631C6.16463 7.38929 5.91686 8.15756 5.91686 8.98453C5.91686 11.2396 7.74485 13.0676 9.99992 13.0676C12.255 13.0676 14.0832 11.2396 14.0832 8.98453C14.0832 8.15756 13.8356 7.38929 13.413 6.74631C15.5797 7.67909 17.2585 9.23839 17.9959 9.99997C16.9039 11.1281 13.7489 14.0067 10.0001 14.0067Z" fill="#223282"/>
<path fill-rule="evenodd" clip-rule="evenodd" d="M1.70696 1.70711C2.09748 1.31658 2.73065 1.31658 3.12117 1.70711L18.707 17.2929C19.0975 17.6834 19.0975 18.3166 18.707 18.7071C18.3164 19.0976 17.6833 19.0976 17.2927 18.7071L1.70696 3.12132C1.31643 2.7308 1.31643 2.09763 1.70696 1.70711Z" fill="white"/>
<path fill-rule="evenodd" clip-rule="evenodd" d="M0.706956 2.29304C1.09748 1.90252 1.73065 1.90252 2.12117 2.29304L17.707 17.8788C18.0975 18.2694 18.0975 18.9025 17.707 19.293C17.3164 19.6836 16.6833 19.6836 16.2927 19.293L0.706956 3.70726C0.316431 3.31673 0.316431 2.68357 0.706956 2.29304Z" fill="#223282"/>
</g>
<defs>
<clipPath id="clip0">
<rect width="20" height="20" fill="white"/>
</clipPath>
</defs>
</svg>
