<svg width="20" height="12" viewBox="0 0 20 12" fill="none" xmlns="http://www.w3.org/2000/svg">
<path d="M19.7408 5.29891C19.5651 5.09176 15.3669 0.23291 10.0001 0.23291C4.63315 0.23291 0.435139 5.09176 0.259063 5.29912C-0.0863881 5.70529 -0.0863881 6.29465 0.259266 6.70123C0.435139 6.90838 4.63315 11.767 10.0001 11.767C15.3669 11.767 19.5651 6.90797 19.741 6.70082C20.0864 6.29465 20.0864 5.70529 19.7408 5.29891ZM11.6394 3.15167C12.0003 2.95468 12.5036 3.18072 12.7633 3.65635C13.0231 4.13218 12.941 4.67767 12.5801 4.87466C12.2195 5.07186 11.716 4.84562 11.4561 4.36999C11.1965 3.89416 11.2784 3.34867 11.6394 3.15167ZM10.0001 10.0067C6.25114 10.0067 3.09619 7.12751 2.00419 5.99997C2.7416 5.23839 4.42052 3.67889 6.58725 2.74631C6.16463 3.38929 5.91686 4.15756 5.91686 4.98453C5.91686 7.23961 7.74485 9.0676 9.99992 9.0676C12.255 9.0676 14.0832 7.23961 14.0832 4.98453C14.0832 4.15756 13.8356 3.38929 13.413 2.74631C15.5797 3.67909 17.2585 5.23839 17.9959 5.99997C16.9039 7.12812 13.7489 10.0067 10.0001 10.0067Z" fill="#223282"/>
</svg>
