<svg width="555" height="736" viewBox="0 0 555 736" fill="none" xmlns="http://www.w3.org/2000/svg">
<path d="M292.182 240.265L262.81 207.925L274.806 199.553L243.387 182.856L251.527 148.076L329.457 186.875C337.741 190.75 342.835 199.266 342.359 208.403C341.882 217.541 335.884 225.482 327.268 228.448L292.182 240.265Z" fill="#9FBFFF"/>
<path d="M261.774 166.469C261.2 164.358 259.669 158.792 256.606 149.626C252.635 137.678 237.418 107.255 229.905 111.382C225.359 113.925 228.804 123.234 237.418 138.062C227.512 126.257 219.377 118.292 215.501 122.035C211.625 125.778 221.722 137.63 229.426 146.699C221.914 143.244 211.913 138.158 209.424 141.517C205.788 146.315 214.162 151.018 219.377 154.665C230.91 162.774 233.255 163.302 233.877 172.228C234.307 178.178 240.145 183.936 246.797 184.464" fill="#9FBFFF"/>
<path d="M219.66 167.696C223.609 167.696 226.811 164.478 226.811 160.509C226.811 156.54 223.609 153.322 219.66 153.322C215.71 153.322 212.508 156.54 212.508 160.509C212.508 164.478 215.71 167.696 219.66 167.696Z" fill="#2B292D"/>
<path d="M206.947 160.508C214.846 160.508 221.25 154.073 221.25 146.135C221.25 138.197 214.846 131.762 206.947 131.762C199.048 131.762 192.645 138.197 192.645 146.135C192.645 154.073 199.048 160.508 206.947 160.508Z" fill="#2B292D"/>
<path d="M179.929 198.839C187.829 198.839 194.232 192.403 194.232 184.465C194.232 176.527 187.829 170.092 179.929 170.092C172.03 170.092 165.627 176.527 165.627 184.465C165.627 192.403 172.03 198.839 179.929 198.839Z" fill="#2B292D"/>
<path d="M555 546.641H74.8643V547.494H555V546.641Z" fill="#3F233F"/>
<path d="M176.751 167.697C184.651 167.697 191.054 161.262 191.054 153.324C191.054 145.385 184.651 138.95 176.751 138.95C168.852 138.95 162.449 145.385 162.449 153.324C162.449 161.262 168.852 167.697 176.751 167.697Z" fill="#2B292D"/>
<path d="M192.643 160.508C200.542 160.508 206.946 154.073 206.946 146.135C206.946 138.197 200.542 131.762 192.643 131.762C184.744 131.762 178.341 138.197 178.341 146.135C178.341 154.073 184.744 160.508 192.643 160.508Z" fill="#2B292D"/>
<path d="M179.929 184.464C187.829 184.464 194.232 178.028 194.232 170.09C194.232 162.152 187.829 155.717 179.929 155.717C172.03 155.717 165.627 162.152 165.627 170.09C165.627 178.028 172.03 184.464 179.929 184.464Z" fill="#2B292D"/>
<path d="M203.768 191.65C215.178 191.65 224.428 182.355 224.428 170.888C224.428 159.422 215.178 150.127 203.768 150.127C192.358 150.127 183.109 159.422 183.109 170.888C183.109 182.355 192.358 191.65 203.768 191.65Z" fill="#9FBFFF"/>
<path d="M222.041 169.293C222.919 169.293 223.631 168.4 223.631 167.297C223.631 166.195 222.919 165.301 222.041 165.301C221.164 165.301 220.452 166.195 220.452 167.297C220.452 168.4 221.164 169.293 222.041 169.293Z" fill="#2B292D"/>
<path d="M208.931 206.025C220.121 206.025 229.193 196.909 229.193 185.663C229.193 174.417 220.121 165.301 208.931 165.301C197.74 165.301 188.668 174.417 188.668 185.663C188.668 196.909 197.74 206.025 208.931 206.025Z" fill="#9FBFFF"/>
<path d="M246.278 353.75C270.195 353.75 289.583 334.265 289.583 310.23C289.583 286.195 270.195 266.711 246.278 266.711C222.361 266.711 202.972 286.195 202.972 310.23C202.972 334.265 222.361 353.75 246.278 353.75Z" fill="#9FBFFF"/>
<path d="M362.544 542.763L276.236 495.64L327.554 400.724L240.484 356.088L285.566 268.396L417.1 335.804C428.906 341.832 437.761 352.453 441.712 365.13C445.616 377.856 444.283 391.634 437.951 403.307L362.544 542.763Z" fill="#FCF0E3"/>
<path d="M136.512 508.266L100.856 416.268L195.924 379.096L211.824 289.49L308.511 306.809L287.755 423.683C284.756 440.619 273.188 454.78 257.24 460.999L136.512 508.266Z" fill="#FCF0E3"/>
<path d="M441.854 365.13C437.951 352.405 429.048 341.832 417.242 335.804L285.708 268.396L191.735 300.115L205.493 324.322L205.779 324.227L196.02 379.1L100.951 416.272L136.608 508.27L257.335 461.003C273.283 454.784 284.851 440.623 287.851 423.687L294.896 383.932L327.649 400.724L276.378 495.64L362.686 542.763L438.093 403.307C444.425 391.634 445.758 377.856 441.854 365.13Z" fill="#FCF0E3"/>
<path d="M87.8951 215.796C94.0736 215.796 99.0823 210.762 99.0823 204.553C99.0823 198.344 94.0736 193.311 87.8951 193.311C81.7165 193.311 76.7078 198.344 76.7078 204.553C76.7078 210.762 81.7165 215.796 87.8951 215.796Z" fill="#9FBFFF"/>
<path d="M169.979 407.897C143.653 407.897 122.183 386.369 122.183 359.865C122.183 354.89 126.181 350.871 131.132 350.871C136.083 350.871 140.082 354.89 140.082 359.865C140.082 376.418 153.507 389.909 169.979 389.909C186.45 389.909 199.875 376.418 199.875 359.865C199.875 354.89 203.874 350.871 208.825 350.871C213.776 350.871 217.774 354.89 217.774 359.865C217.727 386.369 196.304 407.897 169.979 407.897Z" fill="#9FBFFF"/>
<path d="M184.832 586.487C179.881 586.487 175.883 582.468 175.883 577.493C175.883 572.518 179.881 568.499 184.832 568.499C201.304 568.499 214.729 555.008 214.729 538.455C214.729 533.48 218.727 529.461 223.678 529.461C228.629 529.461 232.628 533.48 232.628 538.455C232.628 564.959 211.158 586.487 184.832 586.487Z" fill="#9FBFFF"/>
<path d="M279.187 486.929C276.045 483.771 276.711 478.509 280.472 476.261C293.564 468.462 310.702 470.185 321.984 481.523C333.219 492.813 334.98 510.084 327.221 523.24C324.983 527.067 319.699 527.689 316.605 524.532L279.187 486.929Z" fill="#9FBFFF"/>
<path d="M232.675 441.914C230.39 441.914 228.105 441.053 226.344 439.283C222.869 435.791 222.869 430.097 226.344 426.605L242.292 410.578C243.958 408.904 246.243 407.947 248.623 407.947C251.004 407.947 253.241 408.904 254.955 410.578L264.476 420.147L273.711 410.626C275.378 408.904 277.663 407.947 280.043 407.899H280.091C282.471 407.899 284.708 408.856 286.422 410.531L295.943 420.099L305.179 410.578C306.845 408.856 309.13 407.899 311.51 407.852H311.558C313.938 407.852 316.176 408.808 317.889 410.483L333.837 426.509C337.312 430.002 337.312 435.695 333.837 439.187C330.362 442.68 324.697 442.68 321.222 439.187L311.701 429.619L302.465 439.139C300.799 440.862 298.514 441.818 296.134 441.866H296.086C293.706 441.866 291.468 440.909 289.754 439.235L280.233 429.667L270.998 439.187C269.332 440.909 267.047 441.866 264.666 441.914H264.619C262.238 441.914 260.001 440.957 258.287 439.283L248.671 429.619L239.055 439.283C237.246 441.053 234.961 441.914 232.675 441.914Z" fill="#9FBFFF"/>
<path d="M122.279 507.933C117.328 507.933 113.33 503.914 113.33 498.939V467.316C113.33 462.341 117.328 458.322 122.279 458.322H144.702L144.416 436.172C144.368 433.78 145.32 431.483 146.987 429.761C148.653 428.039 150.938 427.082 153.318 427.082H184.785C189.736 427.082 193.735 431.101 193.735 436.076C193.735 441.051 189.736 445.07 184.785 445.07H162.363L162.649 467.22C162.696 469.612 161.744 471.909 160.078 473.631C158.412 475.353 156.127 476.31 153.747 476.31H131.229V498.939C131.229 503.914 127.23 507.933 122.279 507.933Z" fill="#9FBFFF"/>
<path d="M296.465 586.678C294.132 586.678 291.847 585.769 290.181 584.095C288.467 582.42 287.515 580.124 287.515 577.732V555.103H264.998C260.047 555.103 256.048 551.085 256.048 546.109C256.048 541.134 260.047 537.115 264.998 537.115H296.465C301.416 537.115 305.415 541.134 305.415 546.109V568.642L327.456 568.355C327.504 568.355 327.551 568.355 327.551 568.355C332.455 568.355 336.406 572.326 336.501 577.206C336.549 582.181 332.597 586.248 327.694 586.295L296.608 586.678C296.513 586.678 296.465 586.678 296.465 586.678Z" fill="#9FBFFF"/>
<path d="M199.544 514.057C197.307 514.057 195.022 513.196 193.308 511.522C189.785 508.077 189.69 502.384 193.165 498.844L214.873 476.502C216.539 474.78 218.825 473.823 221.205 473.775H221.252C223.633 473.775 225.87 474.732 227.584 476.407L249.816 498.748C253.291 502.241 253.291 507.934 249.816 511.426C246.34 514.918 240.675 514.918 237.2 511.426L221.348 495.495L205.923 511.33C204.21 513.148 201.877 514.057 199.544 514.057Z" fill="#9FBFFF"/>
<path d="M107.615 606.999C105.378 606.999 103.093 606.138 101.379 604.463C97.856 601.019 97.7608 595.326 101.236 591.785L122.944 569.444C124.61 567.721 126.895 566.765 129.276 566.717H129.323C131.703 566.717 133.941 567.674 135.655 569.348L157.887 591.69C161.362 595.182 161.362 600.875 157.887 604.367C154.411 607.86 148.746 607.86 145.271 604.367L129.418 588.436L113.994 604.272C112.28 606.09 109.948 606.999 107.615 606.999Z" fill="#9FBFFF"/>
<path d="M260.715 380.583C266.894 380.583 271.903 375.549 271.903 369.34C271.903 363.131 266.894 358.098 260.715 358.098C254.537 358.098 249.528 363.131 249.528 369.34C249.528 375.549 254.537 380.583 260.715 380.583Z" fill="#9FBFFF"/>
<path d="M150.889 544.821C157.068 544.821 162.076 539.788 162.076 533.578C162.076 527.369 157.068 522.336 150.889 522.336C144.71 522.336 139.702 527.369 139.702 533.578C139.702 539.788 144.71 544.821 150.889 544.821Z" fill="#9FBFFF"/>
<path d="M61.3442 467.793C59.0591 467.793 56.7741 466.931 55.0127 465.161C51.5375 461.669 51.5375 455.976 55.0127 452.484L102.333 404.93C105.808 401.438 111.473 401.438 114.948 404.93C118.423 408.422 118.423 414.115 114.948 417.608L67.6281 465.161C65.9143 466.931 63.6292 467.793 61.3442 467.793Z" fill="#9FBFFF"/>
<path d="M114.519 557.498H71.6737C66.7227 557.498 62.7239 553.479 62.7239 548.504V505.447C62.7239 500.472 66.7227 496.453 71.6737 496.453H114.566C119.517 496.453 123.516 500.472 123.516 505.447V548.552C123.468 553.479 119.47 557.498 114.519 557.498ZM80.5759 539.558H105.616V514.393H80.5759V539.558Z" fill="#9FBFFF"/>
<path d="M438.473 232.657C444.652 232.657 449.66 227.624 449.66 221.414C449.66 215.205 444.652 210.172 438.473 210.172C432.295 210.172 427.286 215.205 427.286 221.414C427.286 227.624 432.295 232.657 438.473 232.657Z" fill="#9FBFFF"/>
<path d="M253.098 321.499C226.772 321.499 205.302 299.97 205.302 273.467C205.302 268.491 209.301 264.473 214.252 264.473C219.203 264.473 223.201 268.491 223.201 273.467C223.201 290.02 236.626 303.511 253.098 303.511C258.049 303.511 262.047 307.529 262.047 312.505C262.047 317.48 258.049 321.499 253.098 321.499Z" fill="#9FBFFF"/>
<path d="M158.793 221.894C161.935 218.736 161.268 213.474 157.507 211.225C144.416 203.427 127.278 205.15 115.995 216.488C104.713 227.826 102.999 245.049 110.759 258.205C112.996 262.032 118.28 262.654 121.375 259.497L158.793 221.894Z" fill="#9FBFFF"/>
<path d="M205.255 176.923C202.97 176.923 200.685 176.062 198.924 174.292L189.307 164.628L179.691 174.292C178.025 175.966 175.74 176.923 173.359 176.923H173.312C170.932 176.923 168.646 175.918 166.98 174.196L157.745 164.676L148.224 174.244C146.558 175.918 144.225 176.875 141.845 176.875C139.464 176.875 137.179 175.87 135.513 174.148L126.278 164.628L116.757 174.196C113.281 177.688 107.616 177.688 104.141 174.196C100.666 170.704 100.666 165.011 104.141 161.518L120.089 145.492C121.755 143.817 124.04 142.86 126.42 142.86H126.468C128.848 142.86 131.133 143.865 132.8 145.587L142.035 155.108L151.556 145.539C153.222 143.865 155.555 142.908 157.935 142.908C160.316 142.908 162.601 143.913 164.267 145.635L173.502 155.155L183.023 145.587C186.499 142.095 192.164 142.095 195.639 145.587L211.587 161.614C215.062 165.106 215.062 170.799 211.587 174.292C209.825 176.014 207.54 176.923 205.255 176.923Z" fill="#9FBFFF"/>
<path d="M496.837 219.167C491.886 219.167 487.887 215.148 487.887 210.173V196.491H474.32C471.939 196.491 469.654 195.534 467.988 193.812C466.322 192.089 465.37 189.793 465.417 187.401L465.56 174.101H452.04C449.66 174.101 447.375 173.144 445.709 171.422C444.043 169.7 443.09 167.403 443.138 165.011L443.281 151.712H429.761C424.81 151.712 420.811 147.693 420.811 142.718C420.811 137.742 424.81 133.724 429.761 133.724H452.278C454.659 133.724 456.944 134.68 458.61 136.403C460.276 138.125 461.228 140.421 461.181 142.813L461.038 156.113H474.558C476.938 156.113 479.223 157.07 480.889 158.792C482.555 160.514 483.507 162.811 483.46 165.203L483.317 178.502H496.837C501.788 178.502 505.787 182.521 505.787 187.497V210.125C505.787 215.148 501.788 219.167 496.837 219.167Z" fill="#9FBFFF"/>
<path d="M315.652 242.944C310.701 242.944 306.702 238.926 306.702 233.95V211.322H284.185C281.805 211.322 279.52 210.365 277.853 208.643C276.187 206.92 275.235 204.624 275.283 202.232L275.568 180.082H253.146C248.195 180.082 244.196 176.063 244.196 171.088C244.196 166.112 248.195 162.094 253.146 162.094H284.613C286.994 162.094 289.279 163.051 290.945 164.773C292.611 166.495 293.563 168.791 293.516 171.183L293.23 193.334H315.652C320.603 193.334 324.602 197.352 324.602 202.328V233.95C324.602 238.926 320.603 242.944 315.652 242.944Z" fill="#9FBFFF"/>
<path d="M102.716 375.419C102.669 375.419 102.669 375.419 102.621 375.419L71.5345 375.037C66.5836 374.989 62.6323 370.922 62.7275 365.947C62.7751 361.019 66.774 357.096 71.6773 357.096C71.725 357.096 71.7726 357.096 71.7726 357.096L93.8139 357.383V334.803C93.8139 329.827 97.8128 325.809 102.764 325.809H134.183C139.134 325.809 143.133 329.827 143.133 334.803C143.133 339.778 139.134 343.797 134.183 343.797H111.666V366.425C111.666 368.817 110.714 371.114 109 372.788C107.334 374.463 105.049 375.419 102.716 375.419Z" fill="#9FBFFF"/>
<path d="M238.388 249.022C236.055 249.022 233.77 248.113 232.009 246.295L216.584 230.46L200.732 246.391C197.257 249.883 191.592 249.883 188.116 246.391C184.641 242.898 184.641 237.205 188.116 233.713L210.348 211.371C212.014 209.697 214.347 208.74 216.727 208.74C219.108 208.74 221.393 209.745 223.059 211.467L244.767 233.809C248.195 237.349 248.147 243.042 244.624 246.487C242.91 248.161 240.625 249.022 238.388 249.022Z" fill="#9FBFFF"/>
<path d="M342.169 343.84C339.836 343.84 337.551 342.931 335.789 341.113L320.365 325.278L304.513 341.209C301.037 344.701 295.372 344.701 291.897 341.209C288.422 337.717 288.422 332.023 291.897 328.531L314.129 306.19C315.795 304.515 318.128 303.51 320.508 303.558C322.888 303.558 325.173 304.563 326.84 306.285L348.548 328.627C351.975 332.167 351.928 337.86 348.405 341.305C346.691 342.979 344.454 343.84 342.169 343.84Z" fill="#9FBFFF"/>
<path d="M287.041 279.78C293.219 279.78 298.228 274.747 298.228 268.537C298.228 262.328 293.219 257.295 287.041 257.295C280.862 257.295 275.853 262.328 275.853 268.537C275.853 274.747 280.862 279.78 287.041 279.78Z" fill="#9FBFFF"/>
<path d="M177.214 341.925C183.392 341.925 188.401 336.891 188.401 330.682C188.401 324.473 183.392 319.439 177.214 319.439C171.035 319.439 166.027 324.473 166.027 330.682C166.027 336.891 171.035 341.925 177.214 341.925Z" fill="#9FBFFF"/>
<path d="M376.589 202.805C374.304 202.805 372.019 201.944 370.257 200.174L322.937 152.62C319.462 149.128 319.462 143.435 322.937 139.943C326.413 136.45 332.078 136.45 335.553 139.943L382.873 187.496C386.348 190.989 386.348 196.682 382.873 200.174C381.159 201.896 378.874 202.805 376.589 202.805Z" fill="#9FBFFF"/>
<path d="M398.058 291.978H355.165C350.214 291.978 346.215 287.96 346.215 282.984V239.928C346.215 234.952 350.214 230.934 355.165 230.934H398.058C403.009 230.934 407.008 234.952 407.008 239.928V283.032C406.96 287.96 402.961 291.978 398.058 291.978ZM364.115 274.038H389.108V248.874H364.067L364.115 274.038Z" fill="#9FBFFF"/>
<path d="M419.813 572.372C393.488 572.372 372.018 550.843 372.018 524.34C372.018 519.364 376.016 515.346 380.967 515.346C385.918 515.346 389.917 519.364 389.917 524.34C389.917 540.893 403.342 554.384 419.813 554.384C424.764 554.384 428.763 558.402 428.763 563.378C428.763 568.353 424.764 572.372 419.813 572.372Z" fill="#9FBFFF"/>
<path d="M482.366 493.821C477.415 493.821 473.416 489.803 473.416 484.827V462.199H450.899C448.518 462.199 446.233 461.242 444.567 459.52C442.901 457.797 441.949 455.501 441.997 453.109L442.282 430.959H419.86C414.909 430.959 410.91 426.94 410.91 421.965C410.91 416.989 414.909 412.971 419.86 412.971H451.327C453.707 412.971 455.993 413.928 457.659 415.65C459.325 417.372 460.277 419.668 460.229 422.06L459.944 444.211H482.366C487.317 444.211 491.316 448.229 491.316 453.205V484.827C491.316 489.803 487.317 493.821 482.366 493.821Z" fill="#9FBFFF"/>
<path d="M405.102 499.897C402.769 499.897 400.484 498.988 398.723 497.17L383.299 481.335L367.446 497.266C363.971 500.758 358.306 500.758 354.831 497.266C351.355 493.773 351.355 488.08 354.831 484.588L377.062 462.246C378.728 460.572 381.014 459.615 383.394 459.615H383.441C385.822 459.615 388.107 460.62 389.773 462.342L411.481 484.684C414.909 488.224 414.861 493.917 411.338 497.361C409.624 499.036 407.339 499.897 405.102 499.897Z" fill="#9FBFFF"/>
<path d="M453.754 530.657C459.933 530.657 464.942 525.624 464.942 519.414C464.942 513.205 459.933 508.172 453.754 508.172C447.576 508.172 442.567 513.205 442.567 519.414C442.567 525.624 447.576 530.657 453.754 530.657Z" fill="#9FBFFF"/>
<path d="M345.879 392.541C342.737 395.699 343.404 400.961 347.165 403.21C360.256 411.008 377.394 409.285 388.677 397.947C399.912 386.657 401.673 369.386 393.913 356.23C391.676 352.403 386.392 351.781 383.297 354.938L345.879 392.541Z" fill="#9FBFFF"/>
<path d="M384.487 447.127C381.345 450.285 382.012 455.547 385.773 457.796C398.864 465.594 416.002 463.871 427.285 452.533C438.52 441.243 440.281 423.972 432.521 410.816C430.284 406.989 425 406.367 421.905 409.524L384.487 447.127Z" fill="#9FBFFF"/>
<path d="M301.846 344.363L287.755 423.683C284.756 440.619 273.188 454.78 257.24 460.999L143.939 505.347" stroke="#2B292D" stroke-width="3" stroke-miterlimit="10" stroke-linejoin="round"/>
<path d="M215.326 182.863L189.41 188.027L198.28 232.983L224.197 227.819L215.326 182.863Z" fill="#9FBFFF"/>
<path d="M184.229 228.898L251.785 205.721C266.798 200.597 282.523 211.276 283.378 227.222L285.611 268.5L191.83 300.248L171.116 263.663C163.753 250.494 170.024 233.734 184.229 228.898Z" fill="#F36B7F"/>
<path d="M149.793 294.228L138.558 244.378L184.64 228.639L201.064 276.671L149.793 294.228Z" fill="#F36B7F"/>
<path d="M262.24 257.723L245.578 207.826L261.859 202.276C275.95 197.444 291.231 205.051 295.944 219.259L297.801 224.857C301.228 235.143 295.754 246.289 285.519 249.782L262.24 257.723Z" fill="#F36B7F"/>
<path d="M187.082 194.844C192.787 194.844 197.412 190.375 197.412 184.862C197.412 179.35 192.787 174.881 187.082 174.881C181.377 174.881 176.753 179.35 176.753 184.862C176.753 190.375 181.377 194.844 187.082 194.844Z" fill="#9FBFFF"/>
<path d="M291.262 467.139L382.242 505.887C376.627 516.16 384.05 528.726 395.708 528.726H409.935C417.358 528.726 423.687 534.029 425.067 541.387L426.256 547.789H327.616L262.57 520.699L291.262 467.139Z" fill="#F36B7F"/>
<path d="M144.245 505.464L125.586 513.155C121.471 514.827 118.887 518.984 119.222 523.379C119.605 528.778 124.102 532.982 129.509 532.982H140.944C148.886 532.982 155.297 539.384 155.297 547.314V547.792H91.5678L52 434.47L108.457 413.64L144.245 505.464Z" fill="#F36B7F"/>
<path d="M89.6704 308.485C82.5296 308.485 75.5792 304.992 71.3423 298.869C65.6773 290.64 66.0581 279.637 72.3896 271.886L149.415 172.139L167.505 212.086L141.322 256.673L148.178 289.779L96.8589 307.336C94.5262 308.054 92.0983 308.485 89.6704 308.485Z" fill="#9FBFFF"/>
<path d="M138.245 191.977C138.103 189.79 137.817 184.085 137.817 174.529C137.817 162.025 142.623 128.649 150.998 130.218C156.09 131.168 155.71 141.01 152.283 157.651C157.898 143.435 163.085 133.403 167.892 135.685C172.745 137.967 166.94 152.326 162.514 163.261C168.51 157.651 176.362 149.758 179.741 152.088C184.642 155.464 178.265 162.5 174.458 167.54C166.131 178.76 173.602 187.461 175.791 196.066C177.266 201.772 173.554 209.046 167.463 211.613" fill="#9FBFFF"/>
<path d="M185.891 169.293C189.621 169.293 192.645 166.076 192.645 162.107C192.645 158.138 189.621 154.92 185.891 154.92C182.16 154.92 179.136 158.138 179.136 162.107C179.136 166.076 182.16 169.293 185.891 169.293Z" fill="#2B292D"/>
<path d="M186.288 179.674C190.237 179.674 193.439 176.457 193.439 172.487C193.439 168.518 190.237 165.301 186.288 165.301C182.338 165.301 179.136 168.518 179.136 172.487C179.136 176.457 182.338 179.674 186.288 179.674Z" fill="#2B292D"/>
<path d="M191.618 300.25L205.358 324.507L195.897 379.288L108.417 413.64" stroke="#2B292D" stroke-width="3" stroke-miterlimit="10" stroke-linejoin="round"/>
<path d="M325.343 384.096L327.493 400.865L333.289 386.97" stroke="#2B292D" stroke-width="3" stroke-miterlimit="10" stroke-linejoin="round"/>
<path d="M183.109 392.671L195.822 379.303L193.222 396.87" stroke="#2B292D" stroke-width="3" stroke-miterlimit="10" stroke-linejoin="round"/>
<path d="M292.182 466.169L327.6 400.723L294.943 383.979" stroke="#2B292D" stroke-width="3" stroke-miterlimit="10" stroke-linejoin="round"/>
<path d="M285.613 268.396L417.147 335.804C428.953 341.832 437.808 352.453 441.759 365.13C445.663 377.856 444.33 391.634 437.998 403.307L382.776 505.351" stroke="#2B292D" stroke-width="3" stroke-miterlimit="10" stroke-linejoin="round"/>
<path d="M182.312 283.335L189.911 341.774C245.906 341.774 243.531 290.802 285.61 268.307L285.467 265.914L182.312 283.335Z" fill="#F36B7F"/>
<path d="M214.894 164.5L223.527 170.278C224.514 170.935 224.711 172.203 224.02 173.096L221.406 176.478" fill="#9FBFFF"/>
<path d="M214.894 164.5L223.527 170.278C224.514 170.935 224.711 172.203 224.02 173.096L221.406 176.478" stroke="#2B292D" stroke-width="3" stroke-miterlimit="10" stroke-linejoin="round"/>
<path d="M208.535 170.887C209.413 170.887 210.125 170.172 210.125 169.29C210.125 168.408 209.413 167.693 208.535 167.693C207.658 167.693 206.946 168.408 206.946 169.29C206.946 170.172 207.658 170.887 208.535 170.887Z" fill="#2B292D"/>
<path d="M193.041 158.91C196.771 158.91 199.795 155.871 199.795 152.122C199.795 148.374 196.771 145.335 193.041 145.335C189.311 145.335 186.287 148.374 186.287 152.122C186.287 155.871 189.311 158.91 193.041 158.91Z" fill="#2B292D"/>
<path d="M204.56 155.717C208.509 155.717 211.711 152.32 211.711 148.131C211.711 143.941 208.509 140.545 204.56 140.545C200.61 140.545 197.408 143.941 197.408 148.131C197.408 152.32 200.61 155.717 204.56 155.717Z" fill="#2B292D"/>
<path d="M216.878 154.918C220.169 154.918 222.837 152.237 222.837 148.929C222.837 145.622 220.169 142.94 216.878 142.94C213.586 142.94 210.918 145.622 210.918 148.929C210.918 152.237 213.586 154.918 216.878 154.918Z" fill="#2B292D"/>
<path d="M255.32 122.996C259.694 123.427 260.978 153.321 260.978 153.321L247.475 151.121C247.475 151.121 247 122.135 255.32 122.996Z" fill="#9FBFFF"/>
<path d="M182.312 283.48L192.642 289.869" stroke="#FCF0E3" stroke-width="3" stroke-miterlimit="10" stroke-linejoin="round"/>
<path d="M284.817 249.942L284.021 240.359" stroke="#FCF0E3" stroke-width="3" stroke-miterlimit="10" stroke-linejoin="round"/>
<path d="M196.616 224.758L213.144 231.763C218.812 234.179 224.813 229.058 223.432 222.971L221.86 216.063L210.048 214.807L196.616 224.758Z" fill="#9FBFFF"/>
<path d="M140.995 256.328L133.049 269.903" stroke="#2B292D" stroke-width="3" stroke-miterlimit="10" stroke-linejoin="round"/>
<path d="M137.817 186.859V196.442" stroke="#2B292D" stroke-width="3" stroke-miterlimit="10" stroke-linejoin="round"/>
<path d="M249.061 132.56L248.266 146.134" stroke="#2B292D" stroke-width="3" stroke-miterlimit="10" stroke-linejoin="round"/>
<path d="M219.034 185.365L220.19 183.181C221.298 181.044 224.236 180.626 226.018 182.298L227.125 183.367C227.511 183.739 227.703 184.297 227.559 184.808C227.318 185.83 226.066 186.295 225.151 185.737L224.814 185.505C224.091 185.04 223.128 185.226 222.598 185.923L221.827 186.992C221.298 187.735 220.238 187.875 219.516 187.317L219.419 187.27C218.889 186.806 218.697 186.016 219.034 185.365Z" fill="#2B292D"/>
<path d="M233.962 160.51V169.293" stroke="#2B292D" stroke-width="3" stroke-miterlimit="10" stroke-linejoin="round"/>
<path d="M219.66 203.629C218.456 204.217 217.204 204.688 215.855 205.08C212.918 205.904 209.884 206.179 206.946 205.943" stroke="#2B292D" stroke-width="3" stroke-miterlimit="10" stroke-linejoin="round"/>
<path d="M276.87 261.121C259.577 268.468 253.953 287.505 241.908 291.465" stroke="#FCF0E3" stroke-width="3" stroke-miterlimit="10" stroke-linejoin="round"/>
<path d="M245.086 281.086C242.684 283.724 240.097 285.737 237.14 286.676" stroke="#FCF0E3" stroke-width="3" stroke-miterlimit="10" stroke-linejoin="round"/>
<path d="M300.731 348.959C302.989 361.123 324.656 369.68 329.46 374.44C334.264 379.2 351.27 397.085 337.627 421.124C329.46 435.547 305.584 473.528 305.584 473.528L291.171 467.326L327.538 400.642L294.63 383.815L300.731 348.959Z" fill="#2B292D"/>
<path d="M545.464 249.943H488.253V356.945H545.464V249.943Z" fill="#9FBFFF"/>
<path d="M554.903 419.875C554.903 419.78 554.903 419.684 554.903 419.636C554.903 419.397 554.856 419.158 554.808 418.919C554.808 418.823 554.808 418.728 554.76 418.68C554.712 418.393 554.665 418.106 554.617 417.819C554.617 417.771 554.617 417.771 554.617 417.724C554.569 417.389 554.474 417.054 554.378 416.719C554.378 416.672 554.378 416.671 554.33 416.624C554.235 416.337 554.139 416.05 554.044 415.763C554.044 415.715 553.996 415.619 553.996 415.572C553.901 415.285 553.805 414.998 553.662 414.711C553.662 414.663 553.614 414.663 553.614 414.615C553.328 413.946 553.041 413.324 552.659 412.655C552.659 412.607 552.611 412.607 552.611 412.559C552.468 412.272 552.277 411.937 552.086 411.651C552.086 411.603 552.038 411.603 552.038 411.555C551.418 410.598 550.749 409.642 549.937 408.686C548.839 407.442 547.597 406.199 546.213 405.004C551.895 400.27 554.903 394.866 554.903 389.223C554.903 380.52 547.693 372.343 534.561 366.27C521.621 360.245 504.43 356.945 486.142 356.945V358.38C523.292 358.38 553.471 372.2 553.471 389.223C553.471 394.627 550.415 399.696 545.114 404.095C542.202 401.848 538.668 399.696 534.561 397.831C521.621 391.806 504.43 388.506 486.142 388.506C479.457 388.506 473.822 390.275 469.906 393.575C466.373 396.54 464.415 400.556 464.415 404.908C464.415 411.698 469.477 418.584 479.266 420.784C475.589 421.597 472.389 423.031 469.906 425.135C466.373 428.1 464.415 432.117 464.415 436.469C464.415 443.259 469.477 450.145 479.266 452.345C475.589 453.158 472.389 454.592 469.906 456.696C466.373 459.661 464.415 463.678 464.415 468.029C464.415 474.82 469.477 481.706 479.266 483.905C475.589 484.718 472.389 486.153 469.906 488.257C466.373 491.222 464.415 495.238 464.415 499.59C464.415 507.863 471.864 516.231 486.142 516.231C504.43 516.231 521.621 512.932 534.561 506.906C538.668 504.994 542.202 502.89 545.114 500.642C550.463 505.041 553.471 510.11 553.471 515.514C553.471 532.537 523.244 546.357 486.142 546.357V547.792C504.43 547.792 521.621 544.492 534.561 538.467C547.693 532.394 554.903 524.217 554.903 515.514C554.903 509.871 551.895 504.468 546.213 499.733C547.645 498.538 548.887 497.343 549.937 496.051C549.937 496.051 549.937 496.051 549.985 496.004C550.797 495.095 551.465 494.139 552.086 493.134C552.086 493.087 552.134 493.087 552.134 493.039C552.325 492.752 552.516 492.465 552.659 492.13C552.659 492.082 552.707 492.082 552.707 492.035C553.041 491.413 553.375 490.743 553.662 490.074C553.662 490.026 553.71 490.026 553.71 489.978C553.805 489.691 553.948 489.405 554.044 489.118C554.044 489.07 554.092 488.974 554.092 488.926C554.187 488.639 554.283 488.353 554.378 488.066C554.378 488.018 554.378 488.018 554.426 487.97C554.521 487.635 554.569 487.3 554.665 486.966C554.665 486.918 554.665 486.918 554.665 486.87C554.712 486.583 554.76 486.296 554.808 486.009C554.808 485.914 554.808 485.818 554.856 485.77C554.903 485.531 554.903 485.292 554.951 485.053C554.951 484.957 554.951 484.862 554.951 484.814C554.951 484.479 554.999 484.192 554.999 483.858C554.999 483.523 554.999 483.236 554.951 482.901C554.951 482.805 554.951 482.71 554.951 482.662C554.951 482.423 554.903 482.184 554.856 481.945C554.856 481.849 554.856 481.753 554.808 481.706C554.76 481.419 554.712 481.132 554.665 480.845C554.665 480.797 554.665 480.797 554.665 480.749C554.617 480.415 554.521 480.08 554.426 479.745C554.426 479.697 554.426 479.697 554.378 479.649C554.283 479.362 554.187 479.076 554.092 478.789C554.092 478.741 554.044 478.693 554.044 478.597C553.948 478.31 553.853 478.024 553.71 477.737C553.71 477.689 553.662 477.689 553.662 477.641C553.375 476.972 553.089 476.35 552.707 475.68L552.659 475.633C552.468 475.346 552.325 475.011 552.134 474.724L552.086 474.676C551.465 473.72 550.749 472.763 549.985 471.807C548.887 470.564 547.645 469.32 546.26 468.125C547.693 466.929 548.935 465.734 549.985 464.443C550.797 463.487 551.513 462.53 552.086 461.574L552.134 461.526C552.325 461.239 552.516 460.904 552.659 460.617L552.707 460.57C553.041 459.948 553.375 459.278 553.662 458.609C553.662 458.561 553.71 458.561 553.71 458.513C553.805 458.226 553.948 457.939 554.044 457.653C554.044 457.605 554.092 457.557 554.092 457.461C554.187 457.174 554.283 456.887 554.378 456.601C554.378 456.553 554.378 456.553 554.426 456.505C554.521 456.17 554.569 455.835 554.665 455.501C554.665 455.453 554.665 455.453 554.665 455.405C554.712 455.118 554.76 454.831 554.808 454.544C554.808 454.449 554.808 454.353 554.856 454.305C554.903 454.066 554.903 453.827 554.951 453.588C554.951 453.492 554.951 453.397 554.951 453.349C554.951 453.014 554.999 452.727 554.999 452.392C554.999 452.058 554.999 451.771 554.951 451.436C554.951 451.34 554.951 451.245 554.951 451.197C554.951 450.958 554.903 450.719 554.856 450.48C554.856 450.384 554.856 450.288 554.808 450.241C554.76 449.954 554.712 449.667 554.665 449.38C554.665 449.332 554.665 449.332 554.665 449.284C554.617 448.949 554.521 448.615 554.426 448.28C554.426 448.232 554.426 448.232 554.378 448.184C554.283 447.897 554.187 447.611 554.092 447.324C554.092 447.276 554.044 447.228 554.044 447.132C553.948 446.845 553.853 446.559 553.71 446.272C553.71 446.224 553.662 446.224 553.662 446.176C553.375 445.506 553.089 444.885 552.707 444.215L552.659 444.168C552.468 443.881 552.325 443.546 552.134 443.259L552.086 443.211C551.465 442.255 550.749 441.298 549.985 440.342C548.887 439.099 547.645 437.855 546.26 436.66C547.693 435.464 548.935 434.269 549.985 432.978C550.797 432.021 551.513 431.065 552.086 430.109L552.134 430.061C552.325 429.774 552.516 429.439 552.659 429.152L552.707 429.105C553.041 428.483 553.375 427.813 553.662 427.144C553.662 427.096 553.71 427.096 553.71 427.048C553.805 426.761 553.948 426.474 554.044 426.188C554.044 426.14 554.092 426.092 554.092 425.996C554.187 425.709 554.283 425.422 554.378 425.135C554.378 425.088 554.378 425.088 554.426 425.04C554.521 424.705 554.569 424.37 554.665 424.036C554.665 423.988 554.665 423.988 554.665 423.94C554.712 423.653 554.76 423.366 554.808 423.079C554.808 422.984 554.808 422.888 554.856 422.84C554.903 422.601 554.903 422.362 554.951 422.123C554.951 422.027 554.951 421.932 554.951 421.884C554.951 421.549 554.999 421.262 554.999 420.927C554.951 420.497 554.951 420.162 554.903 419.875ZM553.519 421.74C553.519 421.836 553.519 421.932 553.519 421.979C553.519 422.219 553.471 422.458 553.423 422.649C553.423 422.745 553.423 422.84 553.375 422.936C553.328 423.175 553.28 423.414 553.232 423.701C553.232 423.749 553.232 423.797 553.184 423.892C553.041 424.514 552.898 425.136 552.659 425.757C552.659 425.805 552.611 425.853 552.611 425.901C552.516 426.14 552.42 426.427 552.325 426.666C552.325 426.714 552.277 426.761 552.277 426.809C551.895 427.718 551.37 428.626 550.797 429.535C550.797 429.583 550.749 429.583 550.749 429.631C550.558 429.917 550.367 430.204 550.176 430.491C550.176 430.491 550.176 430.491 550.176 430.539C548.887 432.356 547.168 434.078 545.21 435.751C542.297 433.504 538.764 431.352 534.657 429.487C525.202 425.088 513.455 422.171 500.706 420.88C513.455 419.588 525.202 416.672 534.657 412.272C538.764 410.359 542.297 408.255 545.21 406.008C547.215 407.681 548.887 409.403 550.176 411.22C550.176 411.22 550.176 411.268 550.224 411.268C550.415 411.555 550.606 411.842 550.797 412.129C550.797 412.177 550.845 412.176 550.845 412.224C551.418 413.133 551.895 414.041 552.277 414.95C552.277 414.998 552.325 415.046 552.325 415.093C552.42 415.333 552.516 415.619 552.611 415.859C552.611 415.906 552.659 415.954 552.659 416.002C552.85 416.624 553.041 417.245 553.184 417.867C553.184 417.915 553.184 417.963 553.232 418.058C553.28 418.297 553.328 418.536 553.375 418.823C553.375 418.919 553.423 419.015 553.423 419.11C553.471 419.349 553.471 419.588 553.519 419.78C553.519 419.875 553.519 419.971 553.519 420.019C553.519 420.306 553.566 420.64 553.566 420.927C553.519 421.119 553.519 421.453 553.519 421.74ZM550.176 442.733C550.367 443.02 550.558 443.307 550.749 443.594C550.749 443.642 550.797 443.642 550.797 443.689C551.37 444.598 551.847 445.506 552.277 446.415C552.277 446.463 552.325 446.511 552.325 446.559C552.42 446.798 552.516 447.085 552.611 447.324C552.611 447.371 552.659 447.419 552.659 447.467C552.85 448.089 553.041 448.71 553.184 449.332C553.184 449.38 553.184 449.428 553.232 449.523C553.28 449.762 553.328 450.002 553.375 450.288C553.375 450.384 553.423 450.48 553.423 450.575C553.471 450.814 553.471 451.054 553.519 451.245C553.519 451.34 553.519 451.388 553.519 451.484C553.519 451.771 553.566 452.106 553.566 452.392C553.566 452.679 553.566 453.014 553.519 453.301C553.519 453.397 553.519 453.492 553.519 453.54C553.519 453.779 553.471 454.018 553.423 454.21C553.423 454.305 553.423 454.401 553.375 454.496C553.328 454.736 553.28 454.975 553.232 455.262C553.232 455.309 553.232 455.357 553.184 455.453C553.041 456.075 552.898 456.696 552.659 457.318C552.659 457.366 552.611 457.413 552.611 457.461C552.516 457.7 552.42 457.987 552.325 458.226C552.325 458.274 552.277 458.322 552.277 458.37C551.895 459.278 551.37 460.187 550.797 461.096C550.797 461.143 550.749 461.143 550.749 461.191C550.558 461.478 550.367 461.765 550.176 462.052C550.176 462.052 550.176 462.052 550.176 462.1C548.887 463.917 547.168 465.638 545.21 467.312C542.297 465.065 538.764 462.913 534.657 461.048C525.202 456.648 513.503 453.731 500.754 452.44C513.503 451.149 525.202 448.232 534.657 443.833C538.764 441.92 542.297 439.816 545.21 437.568C547.168 439.147 548.839 440.916 550.176 442.733C550.128 442.733 550.176 442.733 550.176 442.733ZM550.176 474.294C550.367 474.581 550.558 474.867 550.749 475.154C550.749 475.202 550.797 475.202 550.797 475.25C551.37 476.159 551.847 477.067 552.277 477.976C552.277 478.024 552.325 478.071 552.325 478.119C552.42 478.358 552.516 478.645 552.611 478.884C552.611 478.932 552.659 478.98 552.659 479.028C552.85 479.649 553.041 480.271 553.184 480.893C553.184 480.941 553.184 480.988 553.232 481.084C553.28 481.323 553.328 481.562 553.375 481.849C553.375 481.945 553.423 482.04 553.423 482.136C553.471 482.375 553.471 482.614 553.519 482.805C553.519 482.901 553.519 482.949 553.519 483.045C553.519 483.331 553.566 483.666 553.566 483.953C553.566 484.24 553.566 484.575 553.519 484.862C553.519 484.957 553.519 485.053 553.519 485.101C553.519 485.34 553.471 485.579 553.423 485.77C553.423 485.866 553.423 485.962 553.375 486.057C553.328 486.296 553.28 486.535 553.232 486.822C553.232 486.87 553.232 486.918 553.184 487.014C553.041 487.635 552.898 488.257 552.659 488.879C552.659 488.926 552.611 488.974 552.611 489.022C552.516 489.261 552.42 489.548 552.325 489.787C552.325 489.835 552.277 489.883 552.277 489.931C551.895 490.839 551.418 491.748 550.845 492.656C550.845 492.704 550.797 492.704 550.797 492.752C550.606 493.039 550.415 493.326 550.224 493.613C550.224 493.613 550.224 493.66 550.176 493.66C548.839 495.478 547.168 497.247 545.21 498.873C542.297 496.625 538.764 494.473 534.657 492.608C525.202 488.209 513.455 485.292 500.706 484.001C513.455 482.71 525.202 479.793 534.657 475.394C538.764 473.481 542.297 471.377 545.21 469.129C547.168 470.707 548.839 472.477 550.176 474.294C550.128 474.294 550.176 474.294 550.176 474.294ZM465.895 404.908C465.895 397.735 472.246 389.988 486.237 389.988C510.781 389.988 532.317 396.061 544.064 405.051C532.413 413.994 511.163 420.019 486.858 420.114C486.667 420.114 486.428 420.114 486.237 420.114C486.19 420.114 486.142 420.114 486.046 420.114C472.198 420.067 465.895 412.224 465.895 404.908ZM465.895 436.469C465.895 429.296 472.198 421.597 486.046 421.549C486.094 421.549 486.142 421.549 486.237 421.549C486.333 421.549 486.428 421.549 486.572 421.549C510.972 421.597 532.365 427.622 544.112 436.612C532.46 445.554 511.211 451.58 486.906 451.675C486.715 451.675 486.476 451.675 486.285 451.675C486.237 451.675 486.19 451.675 486.094 451.675C472.198 451.627 465.895 443.785 465.895 436.469ZM465.895 468.029C465.895 460.856 472.198 453.158 486.046 453.11C486.094 453.11 486.142 453.11 486.237 453.11C486.428 453.11 486.667 453.11 486.858 453.11C511.163 453.205 532.413 459.231 544.064 468.173C532.365 477.163 510.972 483.188 486.524 483.236C486.428 483.236 486.333 483.236 486.19 483.236C486.142 483.236 486.094 483.236 485.999 483.236C472.199 483.14 465.895 475.298 465.895 468.029ZM465.895 499.59C465.895 492.417 472.198 484.718 486.046 484.67C486.094 484.67 486.142 484.67 486.237 484.67C486.428 484.67 486.667 484.67 486.858 484.67C511.163 484.766 532.413 490.791 544.064 499.733C532.317 508.771 510.781 514.797 486.237 514.797C472.246 514.797 465.895 506.906 465.895 499.59Z" fill="#2B292D"/>
<path d="M489.048 547.79H348.404L418.75 419.229L489.048 547.79Z" fill="#82B5A5"/>
<path d="M409.191 420.027C452.855 420.027 488.253 384.454 488.253 340.574C488.253 296.693 452.855 261.121 409.191 261.121C365.526 261.121 330.128 296.693 330.128 340.574C330.128 384.454 365.526 420.027 409.191 420.027Z" fill="#F8CF61"/>
</svg>
