<svg width="24" height="24" viewBox="0 0 24 24" fill="none" xmlns="http://www.w3.org/2000/svg">
<path fill-rule="evenodd" clip-rule="evenodd" d="M19.5001 17.5264H4.50012V6.47376H9.00012L10.3726 8.69865C10.5114 8.9186 10.7514 9.0527 11.0139 9.0527H19.5001V17.5264ZM13.6388 7.57902H11.4375L10.755 6.47376H12.795L13.6388 7.57902ZM20.25 7.57895H15.5138L13.77 5.29474C13.6275 5.10942 13.4062 5 13.17 5H3.75C3.33375 5 3 5.33011 3 5.73684V18.2632C3 18.6703 3.33375 19 3.75 19H20.25C20.6625 19 21 18.6703 21 18.2632V8.31579C21 7.90905 20.6625 7.57895 20.25 7.57895Z" fill="#617AF9"/>
</svg>
