<svg width="97" height="19" viewBox="0 0 97 19" fill="none" xmlns="http://www.w3.org/2000/svg">
<path d="M0.992 1.2H4.88V14.832H13.304V18H0.992V1.2ZM20.561 4.896C22.561 4.896 24.097 5.376 25.169 6.336C26.241 7.28 26.777 8.712 26.777 10.632V18H23.273V16.392C22.569 17.592 21.257 18.192 19.337 18.192C18.345 18.192 17.481 18.024 16.745 17.688C16.025 17.352 15.473 16.888 15.089 16.296C14.705 15.704 14.513 15.032 14.513 14.28C14.513 13.08 14.961 12.136 15.857 11.448C16.769 10.76 18.169 10.416 20.057 10.416H23.033C23.033 9.6 22.785 8.976 22.289 8.544C21.793 8.096 21.049 7.872 20.057 7.872C19.369 7.872 18.689 7.984 18.017 8.208C17.361 8.416 16.801 8.704 16.337 9.072L14.993 6.456C15.697 5.96 16.537 5.576 17.513 5.304C18.505 5.032 19.521 4.896 20.561 4.896ZM20.273 15.672C20.913 15.672 21.481 15.528 21.977 15.24C22.473 14.936 22.825 14.496 23.033 13.92V12.6H20.465C18.929 12.6 18.161 13.104 18.161 14.112C18.161 14.592 18.345 14.976 18.713 15.264C19.097 15.536 19.617 15.672 20.273 15.672ZM37.7975 4.896C38.9975 4.896 40.0855 5.176 41.0615 5.736C42.0535 6.28 42.8295 7.056 43.3895 8.064C43.9495 9.056 44.2295 10.216 44.2295 11.544C44.2295 12.872 43.9495 14.04 43.3895 15.048C42.8295 16.04 42.0535 16.816 41.0615 17.376C40.0855 17.92 38.9975 18.192 37.7975 18.192C36.0215 18.192 34.6695 17.632 33.7415 16.512V18H30.1655V0.191999H33.9095V6.456C34.8535 5.416 36.1495 4.896 37.7975 4.896ZM37.1495 15.12C38.1095 15.12 38.8935 14.8 39.5015 14.16C40.1255 13.504 40.4375 12.632 40.4375 11.544C40.4375 10.456 40.1255 9.592 39.5015 8.952C38.8935 8.296 38.1095 7.968 37.1495 7.968C36.1895 7.968 35.3975 8.296 34.7735 8.952C34.1655 9.592 33.8615 10.456 33.8615 11.544C33.8615 12.632 34.1655 13.504 34.7735 14.16C35.3975 14.8 36.1895 15.12 37.1495 15.12ZM51.7329 4.896C53.7329 4.896 55.2689 5.376 56.3409 6.336C57.4129 7.28 57.9489 8.712 57.9489 10.632V18H54.4449V16.392C53.7409 17.592 52.4289 18.192 50.5089 18.192C49.5169 18.192 48.6529 18.024 47.9169 17.688C47.1969 17.352 46.6449 16.888 46.2609 16.296C45.8769 15.704 45.6849 15.032 45.6849 14.28C45.6849 13.08 46.1329 12.136 47.0289 11.448C47.9409 10.76 49.3409 10.416 51.2289 10.416H54.2049C54.2049 9.6 53.9569 8.976 53.4609 8.544C52.9649 8.096 52.2209 7.872 51.2289 7.872C50.5409 7.872 49.8609 7.984 49.1889 8.208C48.5329 8.416 47.9729 8.704 47.5089 9.072L46.1649 6.456C46.8689 5.96 47.7089 5.576 48.6849 5.304C49.6769 5.032 50.6929 4.896 51.7329 4.896ZM51.4449 15.672C52.0849 15.672 52.6529 15.528 53.1489 15.24C53.6449 14.936 53.9969 14.496 54.2049 13.92V12.6H51.6369C50.1009 12.6 49.3329 13.104 49.3329 14.112C49.3329 14.592 49.5169 14.976 49.8849 15.264C50.2689 15.536 50.7889 15.672 51.4449 15.672ZM82.7263 14.472H79.9903V18H76.1983V14.472H67.1503V11.856L75.0703 1.2H79.1503L71.8063 11.304H76.3183V8.16H79.9903V11.304H82.7263V14.472ZM96.3943 14.832V18H83.6982V15.48L90.1783 9.36C90.8663 8.704 91.3303 8.144 91.5703 7.68C91.8103 7.2 91.9303 6.728 91.9303 6.264C91.9303 5.592 91.6983 5.08 91.2343 4.728C90.7863 4.36 90.1223 4.176 89.2422 4.176C88.5063 4.176 87.8423 4.32 87.2503 4.608C86.6583 4.88 86.1623 5.296 85.7623 5.856L82.9303 4.032C83.5863 3.056 84.4903 2.296 85.6423 1.752C86.7943 1.192 88.1143 0.912 89.6023 0.912C90.8503 0.912 91.9383 1.12 92.8663 1.536C93.8103 1.936 94.5383 2.512 95.0503 3.264C95.5783 4 95.8423 4.872 95.8423 5.88C95.8423 6.792 95.6503 7.648 95.2663 8.448C94.8823 9.248 94.1383 10.16 93.0343 11.184L89.1703 14.832H96.3943Z" fill="#617AF9"/>
</svg>
