<svg width="555" height="736" viewBox="0 0 555 736" fill="none" xmlns="http://www.w3.org/2000/svg">
<path fill-rule="evenodd" clip-rule="evenodd" d="M120.208 606.561L116.737 599.155L118.123 598.504L121.594 605.911L120.208 606.561Z" fill="#2B292D"/>
<path fill-rule="evenodd" clip-rule="evenodd" d="M128.632 605.907L132.154 598.5L133.537 599.159L130.015 606.565L128.632 605.907Z" fill="#2B292D"/>
<path fill-rule="evenodd" clip-rule="evenodd" d="M124.373 606.234V597.193H125.904V606.234H124.373Z" fill="#2B292D"/>
<path fill-rule="evenodd" clip-rule="evenodd" d="M392.231 606.561L388.76 599.155L390.147 598.504L393.618 605.911L392.231 606.561Z" fill="#2B292D"/>
<path fill-rule="evenodd" clip-rule="evenodd" d="M400.657 605.907L404.179 598.5L405.562 599.159L402.04 606.565L400.657 605.907Z" fill="#2B292D"/>
<path fill-rule="evenodd" clip-rule="evenodd" d="M396.397 606.234V597.193H397.928V606.234H396.397Z" fill="#2B292D"/>
<path d="M506.139 605.124H57V607.003H506.139V605.124Z" fill="#3F233F"/>
<path fill-rule="evenodd" clip-rule="evenodd" d="M80.7774 547.087V606.236H79.2463V547.087H80.7774Z" fill="#2B292D"/>
<path d="M80.0106 555.105C84.4367 555.105 88.0248 551.515 88.0248 547.086C88.0248 542.657 84.4367 539.066 80.0106 539.066C75.5844 539.066 71.9963 542.657 71.9963 547.086C71.9963 551.515 75.5844 555.105 80.0106 555.105Z" fill="#9FBFFF"/>
<path fill-rule="evenodd" clip-rule="evenodd" d="M157.092 606.439V530.384H158.623V606.439H157.092Z" fill="#2B292D"/>
<path d="M178.122 530.996H137.591C130.7 530.996 125.085 525.377 125.085 518.482C125.085 511.586 130.7 505.967 137.591 505.967H178.122C185.013 505.967 190.628 511.586 190.628 518.482C190.628 525.377 185.013 530.996 178.122 530.996ZM137.591 515.979C136.213 515.979 135.09 517.102 135.09 518.482C135.09 519.861 136.213 520.984 137.591 520.984H178.122C179.5 520.984 180.623 519.861 180.623 518.482C180.623 517.102 179.5 515.979 178.122 515.979H137.591Z" fill="#FCF0E3"/>
<path d="M175.622 564.502C171.028 564.502 157.909 556.125 157.909 556.125C157.909 556.125 171.028 547.749 175.622 547.749C180.216 547.749 183.994 551.477 183.994 556.125C183.942 560.774 180.216 564.502 175.622 564.502Z" fill="#82B5A5"/>
<path d="M140.145 564.502C144.739 564.502 157.858 556.125 157.858 556.125C157.858 556.125 144.739 547.749 140.145 547.749C135.551 547.749 131.773 551.477 131.773 556.125C131.773 560.774 135.551 564.502 140.145 564.502Z" fill="#82B5A5"/>
<path fill-rule="evenodd" clip-rule="evenodd" d="M97.78 606.465L114.625 432.341L116.149 432.488L99.3043 606.613L97.78 606.465Z" fill="#2B292D"/>
<path d="M141.318 395.845C138.51 394.977 135.499 396.56 134.631 399.37C135.499 396.56 133.916 393.547 131.109 392.678C128.301 391.81 125.289 393.393 124.422 396.203L116.407 422.048L113.498 395.181C113.191 392.27 110.537 390.124 107.627 390.431C104.718 390.737 102.574 393.393 102.88 396.305C102.574 393.393 99.9195 391.248 97.0098 391.555C94.1002 391.861 91.9563 394.517 92.2625 397.429L92.6199 400.953L95.1722 424.806C96.091 433.49 102.114 440.436 109.924 442.99V443.041C111.405 443.501 112.885 443.756 114.314 443.909C115.795 444.063 117.275 444.063 118.807 443.909V443.858C126.974 442.888 134.171 437.218 136.724 428.841L143.768 405.907L144.84 402.485C145.708 399.727 144.125 396.713 141.318 395.845Z" fill="#F36B7F"/>
<path fill-rule="evenodd" clip-rule="evenodd" d="M104.264 416.815L102.069 395.975L103.592 395.814L105.786 416.654L104.264 416.815Z" fill="#3F233F"/>
<path fill-rule="evenodd" clip-rule="evenodd" d="M127.824 418.808L134.001 398.734L135.464 399.185L129.288 419.259L127.824 418.808Z" fill="#3F233F"/>
<path fill-rule="evenodd" clip-rule="evenodd" d="M113.503 443.834L115.646 421.973L117.17 422.122L115.027 443.984L113.503 443.834Z" fill="#3F233F"/>
<path d="M416.61 241.791C449.003 241.791 475.262 215.516 475.262 183.103C475.262 150.69 449.003 124.414 416.61 124.414C384.218 124.414 357.958 150.69 357.958 183.103C357.958 215.516 384.218 241.791 416.61 241.791Z" fill="#FCF0E3"/>
<path d="M442.186 319.33C474.579 319.33 500.838 293.054 500.838 260.641C500.838 228.229 474.579 201.953 442.186 201.953C409.794 201.953 383.534 228.229 383.534 260.641C383.534 293.054 409.794 319.33 442.186 319.33Z" fill="#FCF0E3"/>
<path d="M275.265 227.642C275.623 224.935 277.562 203.38 278.277 191.326C279.247 175.594 270.416 132.433 260.054 135.242C253.775 136.928 258.318 147.756 261.381 169.005C255.408 150.668 249.691 137.643 243.413 140.146C237.185 142.648 243.311 161.139 248.058 175.236C240.962 167.728 231.723 157.154 227.231 159.862C220.799 163.743 228.303 173.091 232.642 179.731C242.29 194.543 236.419 200.826 232.999 211.501C230.702 218.601 234.071 226.671 239.839 234.742" fill="#F36B7F"/>
<path d="M256.632 217.787C255.509 208.848 260.665 200.318 263.064 190.409C266.433 176.669 269.802 168.19 273.018 167.271C280.42 165.227 274.856 187.446 275.979 206.703" fill="#F36B7F"/>
<path fill-rule="evenodd" clip-rule="evenodd" d="M273.226 168.009C273.975 167.803 274.425 167.929 274.745 168.186C275.112 168.482 275.451 169.066 275.704 170.053C276.209 172.024 276.252 175.102 276.088 178.968C276 181.051 275.853 183.346 275.697 185.778C275.282 192.257 274.804 199.711 275.215 206.748L276.744 206.659C276.339 199.723 276.807 192.424 277.221 185.971C277.378 183.513 277.528 181.178 277.618 179.032C277.781 175.191 277.756 171.894 277.188 169.673C276.903 168.563 276.454 167.596 275.705 166.992C274.908 166.351 273.914 166.229 272.815 166.533L272.815 166.533L272.808 166.535C271.755 166.836 270.813 167.709 269.959 168.894C269.091 170.099 268.237 171.733 267.393 173.735C265.705 177.743 264.009 183.343 262.321 190.227L262.32 190.229C261.524 193.517 260.432 196.62 259.355 199.679C258.82 201.2 258.289 202.71 257.799 204.227C256.342 208.743 255.29 213.242 255.873 217.883L257.392 217.692C256.852 213.394 257.817 209.159 259.256 204.698C259.721 203.26 260.238 201.789 260.766 200.288C261.857 197.186 262.995 193.951 263.808 190.591C265.489 183.736 267.163 178.227 268.804 174.33C269.626 172.38 270.428 170.864 271.201 169.791C271.987 168.7 272.672 168.169 273.226 168.009Z" fill="#2B292D"/>
<path d="M298.849 332.862C296.347 332.862 293.897 332.658 291.396 332.3C272.968 329.542 257.552 316.977 251.223 299.406L227.639 234.231L285.219 213.391L302.881 262.272L363.83 198.016L408.241 240.207L338.001 314.27C328.353 326.069 313.958 332.862 298.849 332.862Z" fill="#9FBFFF"/>
<path d="M497.313 442.886C491.086 440.945 489.605 425.213 501.959 404.476C495.272 422.557 493.893 436.246 487.257 433.59C480.621 430.934 485.624 412.188 490.882 398.295C483.48 405.548 476.231 416.121 471.841 413.261C465.563 409.124 473.424 400.083 478.018 393.596C488.176 379.192 476.997 368.721 475.517 357.688C474.751 352.07 475.262 348.341 478.937 343.131L522.581 355.492C522.581 355.441 507.574 446.053 497.313 442.886Z" fill="#F36B7F"/>
<path d="M465.051 369.283L449.379 286.129L372.708 236.941L410.38 187.65L493.585 241.64C500.681 246.186 505.581 253.49 507.164 261.764L525.285 357.944L465.051 369.283Z" fill="#9FBFFF"/>
<path d="M495.273 522.976C493.844 542.233 494.15 571.5 512.068 576.455C525.748 580.235 534.885 592.647 533.813 606.948L468.015 606.999L441.318 565.013L441.522 606.999H420.287L420.185 523.232L495.273 522.976Z" fill="#3040C4"/>
<path d="M399.359 140.764C399.103 142.705 398.593 144.544 397.98 146.281C397.47 147.609 396.857 148.937 396.143 150.162C391.089 158.846 381.135 164.056 370.569 162.574C358.522 160.889 349.589 151.082 348.568 139.436C348.415 137.546 348.466 135.656 348.721 133.715C348.874 132.643 349.078 131.57 349.385 130.497C350.967 124.521 354.642 119.516 359.492 116.196C364.596 112.671 370.926 110.986 377.562 111.905C390.426 113.693 399.716 124.726 399.665 137.393V137.546C399.665 138.057 399.614 138.568 399.614 139.079C399.512 139.64 399.461 140.202 399.359 140.764Z" fill="#F36B7F"/>
<path d="M396.908 158.64C396.449 162.062 395.326 165.229 393.642 168.038C388.588 176.721 378.634 181.931 368.067 180.45C354.081 178.509 344.28 165.586 346.22 151.591C347.241 144.185 351.324 138.004 356.99 134.071C362.095 130.547 368.425 128.861 375.061 129.781C389.047 131.722 398.848 144.645 396.908 158.64Z" fill="#F36B7F"/>
<path d="M394.634 158.726L368.869 164.894L378.324 204.434L404.089 198.266L394.634 158.726Z" fill="#F36B7F"/>
<path d="M355.048 144.387L348.922 153.99L354.231 157.616" fill="#F36B7F"/>
<path fill-rule="evenodd" clip-rule="evenodd" d="M348.277 153.579L354.403 143.976L355.694 144.8L349.968 153.777L354.663 156.985L353.8 158.25L348.491 154.624C348.149 154.39 348.055 153.927 348.277 153.579Z" fill="#2B292D"/>
<path d="M400.583 139.74L398.541 144.541L396.754 140.404L396.193 140.659C387.158 145.001 376.336 142.753 369.802 135.194L357.143 122.884L349.384 130.546C350.966 124.57 353.467 119.309 358.521 115.784C363.83 112.107 370.517 110.319 377.459 111.238C390.935 113.077 400.685 124.723 400.583 137.952V138.105V139.74Z" fill="#FCF0E3"/>
<path d="M389.199 155.983C395.261 155.983 400.174 151.066 400.174 145.001C400.174 138.936 395.261 134.019 389.199 134.019C383.138 134.019 378.224 138.936 378.224 145.001C378.224 151.066 383.138 155.983 389.199 155.983Z" fill="#F36B7F"/>
<path d="M364.655 148.604C365.343 147.819 365.264 146.625 364.48 145.937C363.695 145.249 362.502 145.327 361.814 146.112C361.126 146.897 361.205 148.092 361.99 148.78C362.774 149.468 363.967 149.389 364.655 148.604Z" fill="#2B292D"/>
<path d="M350.632 147.918C351.319 147.133 351.241 145.939 350.456 145.251C349.672 144.563 348.478 144.641 347.791 145.426C347.103 146.211 347.182 147.405 347.966 148.093C348.751 148.781 349.944 148.703 350.632 147.918Z" fill="#2B292D"/>
<path fill-rule="evenodd" clip-rule="evenodd" d="M363.114 163.444L362.963 163.646C362.962 163.647 362.962 163.647 362.962 163.647C360.743 166.626 356.439 166.962 353.716 164.469L353.71 164.464L352.944 163.749L353.989 162.628L354.752 163.341C356.827 165.238 360.075 164.96 361.735 162.731L361.736 162.729L361.889 162.524L363.114 163.444Z" fill="#2B292D"/>
<path d="M345.146 259.517C345.708 253.388 347.494 247.667 350.251 242.61C353.977 235.817 355.968 228.155 355.866 220.392C355.866 218.655 355.917 216.918 356.172 215.131C358.673 195.925 375.876 181.879 395.171 183.207C415.794 184.637 431.108 202.719 429.219 223.252C429.117 224.529 428.913 225.755 428.708 226.981C427.228 234.438 427.585 242.202 430.036 249.404C431.975 255.022 432.741 261.152 432.18 267.485L345.146 259.517Z" fill="#9FBFFF"/>
<path d="M403.799 183.105H374.039V244.347H403.799V183.105Z" fill="#FCF0E3"/>
<path fill-rule="evenodd" clip-rule="evenodd" d="M429.26 249.652C427.283 243.871 426.661 237.734 427.232 231.659L428.756 231.803C428.204 237.68 428.807 243.597 430.709 249.155C432.684 254.878 433.462 261.115 432.892 267.553L431.366 267.418C431.918 261.189 431.165 255.168 429.261 249.654L429.26 249.652Z" fill="#2B292D"/>
<path fill-rule="evenodd" clip-rule="evenodd" d="M356.321 226.256C355.594 232.128 353.725 237.786 350.926 242.973L350.924 242.976C348.217 247.941 346.462 253.561 345.91 259.586L344.385 259.446C344.956 253.213 346.773 247.391 349.579 242.244C352.292 237.216 354.099 231.74 354.801 226.068L356.321 226.256Z" fill="#2B292D"/>
<path d="M400.939 188.62C400.224 193.83 396.396 198.376 390.934 199.653C383.839 201.338 376.743 196.997 375.059 189.897L373.987 185.759C377.356 182.542 380.98 178.149 386.595 176.668C390.832 175.544 396.243 179.324 399.816 179.783L400.633 183.716C401.092 185.402 401.143 187.036 400.939 188.62Z" fill="#F36B7F"/>
<path d="M385.523 176.569C381.797 179.021 377.407 180.451 372.762 180.707L385.523 176.569Z" fill="#9FBFFF"/>
<path fill-rule="evenodd" clip-rule="evenodd" d="M372.718 179.94C377.233 179.692 381.491 178.302 385.101 175.927L385.942 177.208C382.099 179.736 377.577 181.207 372.802 181.47L372.718 179.94Z" fill="#2B292D"/>
<path d="M242.392 522.976C243.821 542.233 239.074 571.654 207.374 576.455C193.337 578.6 184.557 592.647 185.629 606.948L265.567 606.999L296.348 565.013L296.144 606.999H317.379L317.481 523.232L242.392 522.976Z" fill="#3040C4"/>
<path d="M432.076 267.179C416.405 266.056 344.685 259.824 344.685 259.824L342.95 263.298L239.071 521.087L320.03 553.777L423.909 295.987L419.672 294.251C426.615 287.151 431.209 277.753 432.076 267.179Z" fill="#F3C6BD"/>
<path d="M281.697 465.975C275.622 465.924 270.058 468.018 265.72 471.542C262.606 474.045 258.165 474.147 255.102 471.593C250.814 468.069 245.352 465.975 239.38 465.975C233.203 465.975 227.537 468.222 223.198 472.002C220.084 474.658 215.49 474.709 212.427 472.053C207.986 468.171 202.116 465.924 195.735 466.026C182.412 466.281 171.59 477.161 171.437 490.492C171.233 504.385 182.412 515.674 196.246 515.674C202.422 515.674 208.088 513.426 212.427 509.646C215.49 506.99 220.135 506.99 223.198 509.646C227.537 513.426 233.203 515.674 239.38 515.674C245.352 515.674 250.814 513.579 255.102 510.055C258.165 507.552 262.606 507.552 265.668 510.055C269.956 513.579 275.418 515.674 281.391 515.674C295.224 515.674 306.403 504.385 306.199 490.492C305.995 477.059 295.071 466.128 281.697 465.975Z" fill="#FCF0E3"/>
<path d="M411.916 381.949C405.841 381.898 400.277 383.992 395.938 387.517C392.824 390.019 388.383 390.122 385.321 387.568C381.033 384.043 375.571 381.949 369.598 381.949C363.422 381.949 357.756 384.197 353.417 387.976C350.303 390.632 345.709 390.683 342.646 388.027C338.205 384.145 332.335 381.898 325.954 382C312.631 382.256 301.809 393.135 301.656 406.467C301.452 420.36 312.631 431.648 326.464 431.648C332.641 431.648 338.307 429.4 342.646 425.621C345.709 422.965 350.354 422.965 353.417 425.621C357.756 429.4 363.422 431.648 369.598 431.648C375.571 431.648 381.033 429.554 385.321 426.029C388.383 423.527 392.824 423.527 395.887 426.029C400.175 429.554 405.637 431.648 411.609 431.648C425.443 431.648 436.622 420.36 436.418 406.467C436.214 393.033 425.29 382.102 411.916 381.949Z" fill="#FCF0E3"/>
<path d="M359.285 288.478C353.21 288.427 347.646 290.521 343.307 294.046C340.194 296.549 335.753 296.651 332.69 294.097C328.402 290.572 322.94 288.478 316.968 288.478C310.791 288.478 305.125 290.726 300.786 294.505C297.672 297.161 293.078 297.213 290.015 294.556C285.574 290.675 279.704 288.427 273.323 288.529C260 288.785 249.178 299.664 249.025 312.996C248.821 326.889 260 338.177 273.834 338.177C280.01 338.177 285.676 335.93 290.015 332.15C293.078 329.494 297.723 329.494 300.786 332.15C305.125 335.93 310.791 338.177 316.968 338.177C322.94 338.177 328.402 336.083 332.69 332.558C335.753 330.056 340.194 330.056 343.256 332.558C347.544 336.083 353.006 338.177 358.979 338.177C372.812 338.177 383.991 326.889 383.787 312.996C383.583 299.562 372.659 288.631 359.285 288.478Z" fill="#FCF0E3"/>
<path fill-rule="evenodd" clip-rule="evenodd" d="M238.362 520.75L315.696 328.901L317.117 329.475L239.782 521.323L238.362 520.75Z" fill="#2B292D"/>
<path d="M505.637 537.383H418.348V420.313L383.534 359.53L432.181 267.488L499.562 386.039C503.544 392.782 505.688 400.494 505.688 408.309V537.383H505.637Z" fill="#F3C6BD"/>
<path d="M411.916 381.949C405.841 381.898 400.277 383.992 395.938 387.517C392.824 390.019 388.383 390.122 385.321 387.568C381.033 384.043 375.571 381.949 369.598 381.949C363.422 381.949 357.756 384.197 353.417 387.976C350.303 390.632 345.709 390.683 342.646 388.027C338.205 384.145 332.335 381.898 325.954 382C312.631 382.256 301.809 393.135 301.656 406.467C301.452 420.36 312.631 431.648 326.464 431.648C332.641 431.648 338.307 429.4 342.646 425.621C345.709 422.965 350.354 422.965 353.417 425.621C357.756 429.4 363.422 431.648 369.598 431.648C375.571 431.648 381.033 429.554 385.321 426.029C388.383 423.527 392.824 423.527 395.887 426.029C400.175 429.554 405.637 431.648 411.609 431.648C425.443 431.648 436.622 420.36 436.418 406.467C436.214 393.033 425.29 382.102 411.916 381.949Z" fill="#FCF0E3"/>
<path d="M530.495 308.04C524.421 307.989 518.857 310.083 514.518 313.607C511.404 316.11 506.963 316.212 503.9 313.658C499.612 310.134 494.15 308.04 488.178 308.04C482.001 308.04 476.335 310.287 471.996 314.067C468.882 316.723 464.288 316.774 461.225 314.118C456.784 310.236 450.914 307.989 444.533 308.091C431.21 308.346 420.389 319.226 420.235 332.557C420.031 346.45 431.21 357.738 445.044 357.738C451.22 357.738 456.887 355.491 461.225 351.711C464.288 349.055 468.933 349.055 471.996 351.711C476.335 355.491 482.001 357.738 488.178 357.738C494.15 357.738 499.612 355.644 503.9 352.12C506.963 349.617 511.404 349.617 514.466 352.12C518.754 355.644 524.216 357.738 530.189 357.738C544.022 357.738 555.201 346.45 554.997 332.557C554.793 319.124 543.869 308.193 530.495 308.04Z" fill="#FCF0E3"/>
<path d="M499.051 467.151C492.977 467.1 487.413 469.194 483.074 472.719C479.96 475.221 475.519 475.324 472.456 472.77C468.168 469.245 462.706 467.151 456.734 467.151C450.557 467.151 444.891 469.399 440.552 473.178C437.439 475.834 432.844 475.885 429.782 473.229C425.341 469.347 419.47 467.1 413.09 467.202C399.766 467.458 388.945 478.337 388.792 491.669C388.587 505.562 399.766 516.85 413.6 516.85C419.777 516.85 425.443 514.602 429.782 510.823C432.844 508.167 437.49 508.167 440.552 510.823C444.891 514.602 450.557 516.85 456.734 516.85C462.706 516.85 468.168 514.756 472.456 511.231C475.519 508.729 479.96 508.729 483.023 511.231C487.311 514.756 492.773 516.85 498.745 516.85C512.578 516.85 523.758 505.562 523.553 491.669C523.349 478.235 512.425 467.304 499.051 467.151Z" fill="#FCF0E3"/>
<path d="M510.739 384.198C509.259 390.838 504.154 410.299 502.572 414.743C500.938 419.391 492.21 420.514 494.047 408.154C498.131 380.418 488.892 381.44 491.138 368.313" fill="#F36B7F"/>
<path fill-rule="evenodd" clip-rule="evenodd" d="M494.011 382.527C495.569 387.503 496.86 394.3 494.804 408.266L494.804 408.267C494.355 411.283 494.567 413.387 495.09 414.783C495.606 416.158 496.417 416.836 497.238 417.096C498.943 417.636 501.148 416.482 501.849 414.489L501.85 414.486C503.416 410.089 508.512 390.666 509.991 384.032L511.486 384.365C510.004 391.01 504.892 410.506 503.293 414.999C502.359 417.653 499.384 419.383 496.776 418.557C495.44 418.134 494.311 417.066 493.657 415.321C493.009 413.596 492.819 411.206 493.289 408.042C495.316 394.273 494.03 387.713 492.55 382.984C492.295 382.169 492.03 381.399 491.771 380.647C490.517 377.004 489.419 373.813 490.382 368.184L491.891 368.443C490.998 373.665 491.968 376.492 493.201 380.089C493.465 380.856 493.74 381.658 494.011 382.527Z" fill="#2B292D"/>
<path fill-rule="evenodd" clip-rule="evenodd" d="M397.873 362.674L320.742 554.011L319.322 553.438L396.452 362.1L397.873 362.674Z" fill="#2B292D"/>
<path fill-rule="evenodd" clip-rule="evenodd" d="M452.136 304.18L438.405 280.02L439.736 279.263L453.468 303.423L452.136 304.18Z" fill="#2B292D"/>
<path fill-rule="evenodd" clip-rule="evenodd" d="M417.58 420.521L391.194 375.958L392.512 375.177L419.005 419.921C419.075 420.039 419.111 420.174 419.111 420.311V536.616H420.183V538.148H418.346C417.923 538.148 417.58 537.805 417.58 537.382V420.521Z" fill="#2B292D"/>
<path fill-rule="evenodd" clip-rule="evenodd" d="M506.401 430.424V537.381C506.401 537.804 506.058 538.147 505.635 538.147H495.12V536.615H504.869V430.424H506.401Z" fill="#2B292D"/>
<path d="M344.737 259.824H432.077L435.956 274.126H338.611L344.737 259.824Z" fill="#FCF0E3"/>
<path fill-rule="evenodd" clip-rule="evenodd" d="M386.749 244.347V200.012H388.28V244.347H386.749Z" fill="#2B292D"/>
<path d="M380.5 203.501L376.169 207.835L380.5 212.168L384.831 207.835L380.5 203.501Z" fill="#F8CF61"/>
<path d="M380.5 217.856L376.169 222.189L380.5 226.523L384.831 222.189L380.5 217.856Z" fill="#F8CF61"/>
<path d="M380.5 232.208L376.169 236.542L380.5 240.875L384.831 236.542L380.5 232.208Z" fill="#F8CF61"/>
<path d="M395.477 203.507L391.146 207.84L395.477 212.174L399.808 207.84L395.477 203.507Z" fill="#F8CF61"/>
<path d="M395.479 217.859L391.148 222.193L395.479 226.526L399.81 222.193L395.479 217.859Z" fill="#F8CF61"/>
<path d="M395.483 232.214L391.152 236.547L395.483 240.881L399.814 236.547L395.483 232.214Z" fill="#F8CF61"/>
<path fill-rule="evenodd" clip-rule="evenodd" d="M272.652 540.505C269.023 533.825 260.704 531.309 253.981 534.891C252.366 535.751 250.477 537.719 248.519 540.31C246.581 542.875 244.645 545.958 242.92 548.939C241.197 551.917 239.693 554.78 238.62 556.9C238.083 557.959 237.655 558.832 237.361 559.439C237.359 559.441 237.358 559.443 237.357 559.446C237.36 559.446 237.363 559.447 237.366 559.447C238.034 559.537 238.999 559.661 240.179 559.799C242.539 560.074 245.758 560.401 249.195 560.611C252.635 560.82 256.278 560.911 259.491 560.718C262.735 560.522 265.425 560.041 267.042 559.18C273.766 555.549 276.277 547.229 272.652 540.505ZM236.215 560.06C235.521 559.736 235.521 559.735 235.521 559.735L235.529 559.718L235.552 559.67C235.572 559.627 235.602 559.564 235.641 559.482C235.719 559.318 235.834 559.078 235.982 558.77C236.28 558.156 236.712 557.275 237.254 556.207C238.335 554.071 239.853 551.181 241.594 548.171C243.335 545.163 245.306 542.021 247.297 539.386C249.269 536.776 251.329 534.568 253.261 533.538C260.729 529.561 269.969 532.356 273.998 539.774L273.999 539.776C278.03 547.25 275.233 556.5 267.767 560.53L267.764 560.532C265.833 561.561 262.851 562.05 259.583 562.247C256.283 562.446 252.572 562.352 249.102 562.14C245.628 561.928 242.38 561.598 240.002 561.321C238.812 561.182 237.838 561.057 237.162 560.966C236.824 560.92 236.559 560.883 236.379 560.858C236.29 560.845 236.221 560.835 236.174 560.828L236.121 560.821L236.104 560.818L236.103 560.818C236.102 560.818 236.102 560.818 236.215 560.06ZM236.215 560.06L236.103 560.818C235.863 560.783 235.655 560.636 235.54 560.423C235.426 560.21 235.419 559.954 235.521 559.735L236.215 560.06Z" fill="#FCF0E3"/>
<path fill-rule="evenodd" clip-rule="evenodd" d="M221.734 532.845C215.545 528.443 206.938 529.894 202.538 536.136L202.536 536.138C198.136 542.331 199.587 550.945 205.776 555.347C207.263 556.405 209.865 557.219 213.055 557.818C216.214 558.411 219.836 558.774 223.273 558.993C226.706 559.213 229.939 559.287 232.315 559.307C233.502 559.317 234.474 559.313 235.149 559.307C235.152 559.307 235.155 559.307 235.158 559.307C235.157 559.304 235.156 559.301 235.155 559.299C234.938 558.659 234.621 557.739 234.22 556.621C233.417 554.383 232.28 551.353 230.941 548.181C229.601 545.005 228.064 541.702 226.463 538.913C224.846 536.094 223.221 533.903 221.734 532.845ZM236.215 560.058C236.944 559.822 236.943 559.822 236.943 559.822L236.943 559.821L236.938 559.804L236.921 559.753C236.906 559.708 236.885 559.642 236.856 559.556C236.799 559.383 236.715 559.13 236.605 558.807C236.386 558.16 236.066 557.231 235.661 556.103C234.853 553.848 233.705 550.79 232.352 547.584C231 544.381 229.435 541.015 227.791 538.15C226.164 535.313 224.401 532.862 222.621 531.596C215.742 526.703 206.177 528.316 201.287 535.251C196.398 542.134 198.01 551.703 204.889 556.596C206.668 557.863 209.561 558.721 212.773 559.324C216.017 559.933 219.708 560.301 223.175 560.523C226.645 560.744 229.908 560.819 232.302 560.839C233.5 560.849 234.481 560.846 235.163 560.839C235.504 560.836 235.771 560.832 235.953 560.829C236.044 560.828 236.113 560.827 236.16 560.826L236.214 560.824L236.232 560.824C236.233 560.824 236.233 560.824 236.215 560.058ZM236.215 560.058L236.232 560.824C236.474 560.819 236.699 560.699 236.839 560.502C236.979 560.304 237.018 560.052 236.943 559.822L236.215 560.058Z" fill="#FCF0E3"/>
<path fill-rule="evenodd" clip-rule="evenodd" d="M535.112 541.947C531.871 535.073 523.698 532.075 516.784 535.316C515.133 536.095 513.144 537.963 511.05 540.447C508.978 542.906 506.875 545.88 504.988 548.763C503.103 551.643 501.442 554.419 500.252 556.476C499.657 557.504 499.18 558.351 498.852 558.941C498.851 558.943 498.85 558.945 498.849 558.948C498.851 558.948 498.853 558.948 498.856 558.949C499.518 559.076 500.473 559.253 501.643 559.455C503.982 559.86 507.175 560.363 510.593 560.76C514.014 561.158 517.644 561.446 520.862 561.425C524.111 561.403 526.823 561.065 528.485 560.285C535.355 557.041 538.35 548.813 535.112 541.947ZM497.673 559.497C496.999 559.134 496.999 559.134 496.999 559.134L497.008 559.118L497.034 559.071C497.056 559.029 497.089 558.968 497.133 558.888C497.22 558.729 497.348 558.495 497.514 558.197C497.845 557.6 498.327 556.745 498.927 555.708C500.126 553.635 501.802 550.834 503.707 547.923C505.61 545.015 507.751 541.985 509.88 539.459C511.988 536.958 514.158 534.861 516.132 533.93L516.133 533.929C523.818 530.326 532.899 533.661 536.497 541.293C540.1 548.933 536.765 558.071 529.138 561.672L529.136 561.672C527.149 562.604 524.145 562.935 520.872 562.957C517.566 562.979 513.868 562.683 510.417 562.282C506.962 561.881 503.74 561.373 501.382 560.965C500.202 560.761 499.238 560.582 498.568 560.454C498.233 560.39 497.972 560.339 497.794 560.303C497.704 560.285 497.636 560.272 497.59 560.262L497.538 560.252L497.521 560.248L497.52 560.248C497.519 560.248 497.519 560.248 497.673 559.497ZM497.673 559.497L497.52 560.248C497.283 560.199 497.082 560.041 496.98 559.822C496.877 559.602 496.885 559.347 496.999 559.134L497.673 559.497Z" fill="#FCF0E3"/>
<path fill-rule="evenodd" clip-rule="evenodd" d="M460.033 542.297C456.889 549.27 459.94 557.445 466.85 560.588C468.526 561.345 471.246 561.653 474.497 561.641C477.718 561.629 481.346 561.306 484.764 560.877C488.179 560.448 491.367 559.916 493.703 559.491C494.871 559.278 495.824 559.092 496.485 558.96C496.488 558.959 496.49 558.959 496.492 558.958C496.49 558.956 496.489 558.953 496.487 558.95C496.154 558.362 495.669 557.517 495.064 556.492C493.854 554.442 492.166 551.675 490.253 548.808C488.337 545.938 486.205 542.98 484.106 540.54C481.986 538.075 479.976 536.229 478.315 535.474C471.401 532.329 463.227 535.376 460.033 542.297ZM497.672 559.498C498.343 559.129 498.343 559.129 498.343 559.129L498.343 559.128L498.334 559.113L498.308 559.066C498.285 559.025 498.252 558.963 498.207 558.884C498.119 558.725 497.988 558.492 497.819 558.194C497.482 557.599 496.993 556.746 496.383 555.713C495.163 553.646 493.46 550.855 491.526 547.957C489.594 545.061 487.422 542.047 485.267 539.54C483.132 537.059 480.938 534.984 478.949 534.079C471.264 530.584 462.186 533.972 458.641 541.657L458.638 541.663C455.149 549.399 458.529 558.487 466.217 561.983L466.219 561.984C468.218 562.887 471.228 563.185 474.503 563.173C477.81 563.161 481.507 562.83 484.955 562.397C488.406 561.964 491.623 561.427 493.977 560.998C495.155 560.784 496.117 560.596 496.786 560.462C497.12 560.395 497.381 560.342 497.559 560.305C497.648 560.286 497.716 560.272 497.762 560.262L497.814 560.251L497.832 560.247C497.833 560.247 497.833 560.247 497.672 559.498ZM497.672 559.498L497.832 560.247C498.069 560.197 498.268 560.037 498.368 559.817C498.469 559.596 498.459 559.341 498.343 559.129L497.672 559.498Z" fill="#FCF0E3"/>
</svg>
