<svg width="24" height="24" viewBox="0 0 24 24" fill="none" xmlns="http://www.w3.org/2000/svg">
<path fill-rule="evenodd" clip-rule="evenodd" d="M19.5001 17.6414L17.7864 16.1475C17.6476 16.024 17.4676 15.9585 17.2839 15.9585H7.94263V14.5047H16.8076C17.2201 14.5047 17.5576 14.1812 17.5576 13.7778V9.36173H19.5001V17.6414ZM6.21387 13.2397L4.50012 14.7335V6.45391H16.0576V13.0507H6.71637C6.62262 13.0507 6.52887 13.0689 6.44262 13.1016C6.36012 13.1343 6.28137 13.1779 6.21387 13.2397ZM20.25 7.90768H17.5575V5.72692C17.5575 5.32348 17.22 5 16.8075 5H3.75C3.3375 5 3 5.32348 3 5.72692V16.3654C3 16.6525 3.1725 16.9142 3.44625 17.0305C3.54375 17.0741 3.645 17.0923 3.75 17.0923C3.93 17.0923 4.11 17.0305 4.2525 16.907L6.4425 14.9952V16.6852C6.4425 17.0887 6.78 17.4122 7.1925 17.4122H16.995L19.7475 19.8146C19.89 19.9382 20.07 20 20.25 20C20.355 20 20.4563 19.9818 20.5538 19.9382C20.8275 19.8219 21 19.5602 21 19.2731V8.6346C21 8.23116 20.6625 7.90768 20.25 7.90768Z" fill="#617AF9"/>
</svg>
