<svg width="555" height="736" viewBox="0 0 555 736" fill="none" xmlns="http://www.w3.org/2000/svg">
<path d="M511.898 150.546C504.584 150.238 503.554 177.442 503.4 181.607C503.503 176.927 503.915 142.832 494.387 142.318C483.932 141.752 487.794 178.573 487.794 178.573C487.794 178.573 487.743 178.573 487.691 178.522C487.64 177.596 487.537 176.722 487.382 175.796C485.734 167.105 481.82 161.551 476.206 158.311C471.004 155.329 464.824 154.3 457.717 156.82C454.111 158.106 452.206 162.014 453.493 165.665C454.008 167.105 454.936 168.288 456.12 169.111C455.863 169.059 455.554 169.008 455.245 169.008C451.433 168.802 448.137 171.733 447.931 175.539C447.828 177.853 447.88 180.013 448.086 182.018C448.91 188.91 453.236 195.132 460.601 199.606C468.429 205.366 466.524 214.057 466.524 214.057L515.451 216.782C515.451 216.782 517.408 175.282 518.181 166.179C519.16 155.689 516.172 150.7 511.898 150.546ZM462.352 169.882C465.442 168.802 467.811 168.699 469.356 169.574C471.313 170.705 472.91 173.893 473.786 178.419C474.249 180.784 473.271 183.15 471.313 184.487C468.79 186.235 466.266 185.413 465.339 185.001C464.412 184.59 462.249 183.304 461.94 180.373C461.785 179.139 461.785 177.75 461.837 176.259C461.991 173.739 460.755 171.476 458.798 170.139C459.931 170.396 461.167 170.293 462.352 169.882Z" fill="#9FBFFF"/>
<path d="M476.208 327.861C466.268 327.861 456.431 324.621 448.19 318.296L355.022 247.175L392.567 198.166L460.654 250.209V212.051H522.457V281.733C522.457 299.423 512.569 315.262 496.706 323.13C490.165 326.267 483.161 327.861 476.208 327.861Z" fill="#FCF0E3"/>
<path d="M263.449 606.229V546.679" stroke="#2B292D" stroke-width="3" stroke-miterlimit="10" stroke-linejoin="round"/>
<path d="M263.449 554.752C267.914 554.752 271.535 551.137 271.535 546.678C271.535 542.219 267.914 538.604 263.449 538.604C258.983 538.604 255.363 542.219 255.363 546.678C255.363 551.137 258.983 554.752 263.449 554.752Z" fill="#9FBFFF"/>
<path d="M121.921 606.229L91.0706 505.538" stroke="#2B292D" stroke-width="3" stroke-miterlimit="10" stroke-linejoin="round"/>
<path d="M91.0697 516.339C97.043 516.339 101.885 511.504 101.885 505.54C101.885 499.575 97.043 494.74 91.0697 494.74C85.0965 494.74 80.2542 499.575 80.2542 505.54C80.2542 511.504 85.0965 516.339 91.0697 516.339Z" fill="#F36B7F"/>
<path d="M341.994 529.861V606.434" stroke="#2B292D" stroke-width="3" stroke-miterlimit="10" stroke-linejoin="round"/>
<path d="M362.439 530.478H321.546C314.593 530.478 308.928 524.821 308.928 517.879C308.928 510.936 314.593 505.279 321.546 505.279H362.439C369.392 505.279 375.058 510.936 375.058 517.879C375.058 524.821 369.392 530.478 362.439 530.478ZM321.546 515.359C320.156 515.359 319.023 516.49 319.023 517.879C319.023 519.267 320.156 520.398 321.546 520.398H362.439C363.83 520.398 364.963 519.267 364.963 517.879C364.963 516.49 363.83 515.359 362.439 515.359H321.546Z" fill="#FCF0E3"/>
<path d="M359.914 564.214C355.279 564.214 342.043 555.78 342.043 555.78C342.043 555.78 355.279 547.347 359.914 547.347C364.55 547.347 368.361 551.101 368.361 555.78C368.309 560.46 364.55 564.214 359.914 564.214Z" fill="#82B5A5"/>
<path d="M324.121 564.214C328.756 564.214 341.993 555.78 341.993 555.78C341.993 555.78 328.756 547.347 324.121 547.347C319.486 547.347 315.675 551.101 315.675 555.78C315.675 560.46 319.486 564.214 324.121 564.214Z" fill="#82B5A5"/>
<path d="M121.918 430.404V606.537" stroke="#2B292D" stroke-width="3" stroke-miterlimit="10" stroke-linejoin="round"/>
<path d="M144.373 391.269C141.437 390.652 138.605 392.554 138.038 395.434C138.656 392.503 136.75 389.674 133.866 389.109C130.931 388.492 128.098 390.394 127.531 393.274L121.969 419.913L116.407 393.274C115.789 390.343 112.956 388.492 110.072 389.109C107.136 389.726 105.282 392.554 105.9 395.434C105.282 392.503 102.45 390.652 99.5654 391.269C96.6297 391.886 94.7756 394.714 95.3937 397.594L96.1147 401.091L101.007 424.747C102.759 433.386 109.454 439.711 117.54 441.511V441.563C119.033 441.871 120.579 442.026 122.072 442.026C123.566 442.026 125.059 441.871 126.604 441.563V441.511C134.69 439.711 141.386 433.386 143.137 424.747L148.03 401.091L148.751 397.594C149.163 394.663 147.257 391.834 144.373 391.269Z" fill="#F8CF61"/>
<path d="M105.694 395.023L109.969 415.697" stroke="#3F233F" stroke-width="3" stroke-miterlimit="10"/>
<path d="M138.09 395.023L133.815 415.697" stroke="#3F233F" stroke-width="3" stroke-miterlimit="10"/>
<path d="M121.918 419.914V442.027" stroke="#3F233F" stroke-width="3" stroke-miterlimit="10"/>
<path d="M306.813 203.36C332.356 203.36 353.063 182.685 353.063 157.18C353.063 131.676 332.356 111 306.813 111C281.27 111 260.564 131.676 260.564 157.18C260.564 182.685 281.27 203.36 306.813 203.36Z" fill="#2B292D"/>
<path d="M362.95 141.341C363.104 143.295 363.516 145.198 364.083 146.998C364.546 148.386 365.113 149.723 365.731 151.009C370.418 160.009 380.152 165.717 390.864 164.791C403.122 163.711 412.598 154.3 414.195 142.627C414.452 140.775 414.504 138.821 414.349 136.867C414.246 135.736 414.092 134.656 413.834 133.627C412.495 127.559 409.096 122.314 404.358 118.714C399.414 114.908 393.079 112.903 386.383 113.468C373.353 114.6 363.413 125.245 362.847 137.998V138.153C362.847 138.667 362.847 139.181 362.847 139.747C362.898 140.21 362.898 140.775 362.95 141.341Z" fill="#9FBFFF"/>
<path d="M364.549 159.39C364.858 162.835 365.837 166.127 367.331 169.006C372.017 178.006 381.751 183.714 392.464 182.788C406.679 181.554 417.185 169.058 415.949 154.916C415.28 147.459 411.52 140.98 406.009 136.763C401.065 132.957 394.73 130.952 388.035 131.517C373.82 132.751 363.313 145.248 364.549 159.39Z" fill="#9FBFFF"/>
<path d="M366.712 159.639L355.18 198.92L380.83 206.428L392.362 167.147L366.712 159.639Z" fill="#9FBFFF"/>
<path d="M407.45 147.255L413.167 157.18L407.604 160.574" fill="#9FBFFF"/>
<path d="M407.45 147.255L413.167 157.18L407.604 160.574" stroke="#2B292D" stroke-width="3" stroke-miterlimit="10" stroke-linejoin="round"/>
<path d="M367.996 123.703C359.859 136.097 348.786 134.194 340.288 125.297C329.009 113.418 330.348 145.199 330.348 145.199L338.691 151.164L333.129 159.752C333.129 159.752 344.871 185.825 349.455 175.077C353.009 166.849 360.065 153.17 365.37 164.021L371.859 139.028L367.996 123.703Z" fill="#2B292D"/>
<path d="M234.35 134.038C244.187 147.409 258.659 148.077 267.002 133.575V180.732C258.659 166.23 244.135 166.95 234.35 180.27V134.038Z" fill="#2B292D"/>
<path d="M362.796 139.644L363.568 145.198L365.577 141.135L366.144 141.444C375.002 146.226 386.024 144.529 393.028 137.278L406.419 125.502L413.887 133.627C412.548 127.559 409.148 122.314 404.41 118.714C399.466 114.908 393.131 112.903 386.436 113.468C373.405 114.6 363.465 125.245 362.899 137.998V138.153L362.796 139.644Z" fill="#2B292D"/>
<path d="M372.945 157.181C379.06 157.181 384.018 152.231 384.018 146.125C384.018 140.019 379.06 135.068 372.945 135.068C366.829 135.068 361.872 140.019 361.872 146.125C361.872 152.231 366.829 157.181 372.945 157.181Z" fill="#9FBFFF"/>
<path d="M400.187 151.262C401.013 150.611 401.152 149.414 400.499 148.59C399.846 147.766 398.648 147.627 397.823 148.279C396.998 148.931 396.858 150.127 397.511 150.951C398.164 151.775 399.362 151.914 400.187 151.262Z" fill="#2B292D"/>
<path d="M414.327 151.216C415.152 150.564 415.292 149.367 414.639 148.543C413.986 147.719 412.788 147.58 411.963 148.232C411.137 148.884 410.998 150.08 411.651 150.904C412.304 151.728 413.502 151.868 414.327 151.216Z" fill="#2B292D"/>
<path d="M408.123 166.232L407.35 166.901C404.827 169.009 401.015 168.495 399.213 165.769L399.058 165.563" stroke="#2B292D" stroke-width="3" stroke-miterlimit="10" stroke-linejoin="round"/>
<path d="M156.582 500.293C150.659 518.806 124.341 540.148 92.8732 532.691C78.9159 529.4 65.4222 539.222 61.0444 552.953L133.715 582.214L191.295 559.792L175.278 598.927L195.106 606.95L226.781 528.783L156.582 500.293Z" fill="#3040C4"/>
<path d="M469.049 522.405C467.607 541.793 472.397 571.414 504.38 576.248C518.544 578.408 527.402 592.55 526.321 606.949L445.667 607L414.611 564.728L414.817 607H393.392L393.289 522.662L469.049 522.405Z" fill="#3040C4"/>
<path d="M245.939 383.814C252.48 384.019 259.175 369.569 254.334 345.759C254.694 365.198 251.45 378.62 258.608 378.311C265.767 378.002 267.312 358.512 266.952 343.547C271.587 352.907 274.986 365.403 280.085 364.118C287.45 362.266 282.969 351.107 280.755 343.393C275.862 326.32 289.974 320.097 295.124 310.069C297.751 304.978 298.523 301.276 296.72 295.104L248.102 311.509C248.05 311.509 235.123 383.454 245.939 383.814Z" fill="#9FBFFF"/>
<path d="M244.445 315.263L220.908 229.176C218.436 220.125 220.239 210.406 225.801 202.846C231.363 195.287 240.067 190.607 249.492 190.247L361.614 185.722L364.138 247.381L290.798 250.364L304.137 299.064L244.445 315.263Z" fill="#FCF0E3"/>
<path d="M485.166 526.828H392.461V406.698L316.958 313.104L404.822 271.243L472.805 357.021C480.788 365.609 485.218 376.82 485.218 388.545L485.166 526.828Z" fill="#82B5A5"/>
<path d="M404.257 270.78C404.978 264.66 404.411 258.643 402.763 253.038C400.549 245.53 400.188 237.61 401.888 229.948C402.3 228.251 402.557 226.502 402.712 224.703C404.308 205.315 390.248 187.83 370.935 185.105C350.282 182.174 331.38 196.83 328.908 217.4C328.754 218.686 328.651 219.92 328.651 221.206C328.496 228.868 326.591 236.428 322.625 243.01C319.535 248.153 317.475 254.015 316.702 260.34L404.257 270.78Z" fill="#FCF0E3"/>
<path d="M404.256 270.778C404.977 264.659 404.411 258.642 402.763 253.036C400.548 245.528 400.188 237.609 401.887 229.946" stroke="#2B292D" stroke-width="3" stroke-miterlimit="10" stroke-linejoin="round"/>
<path d="M316.758 260.339C313.874 284.303 330.715 305.953 354.664 309.193C379.076 312.433 401.377 295.154 404.261 270.778L316.758 260.339Z" fill="#82B5A5"/>
<path d="M207.619 192.509C227.16 192.509 243.001 176.692 243.001 157.18C243.001 137.668 227.16 121.851 207.619 121.851C188.078 121.851 172.237 137.668 172.237 157.18C172.237 176.692 188.078 192.509 207.619 192.509Z" fill="#2B292D"/>
<path d="M554.305 441.802L551.111 442.625C548.536 443.293 546.476 445.299 545.807 447.922L544.983 451.11C544.725 452.036 543.437 452.036 543.18 451.11L542.356 447.922C541.686 445.35 539.678 443.293 537.051 442.625L533.858 441.802C532.931 441.545 532.931 440.259 533.858 440.002L537.051 439.179C539.626 438.511 541.686 436.505 542.356 433.883L543.18 430.694C543.437 429.769 544.725 429.769 544.983 430.694L545.807 433.883C546.476 436.454 548.485 438.511 551.111 439.179L554.305 440.002C555.232 440.259 555.232 441.545 554.305 441.802Z" fill="#9FBFFF"/>
<path d="M148.289 242.649L145.096 243.472C142.521 244.14 140.46 246.146 139.791 248.768L138.967 251.957C138.709 252.883 137.422 252.883 137.164 251.957L136.34 248.768C135.671 246.197 133.662 244.14 131.035 243.472L127.842 242.649C126.915 242.392 126.915 241.106 127.842 240.849L131.035 240.026C133.611 239.358 135.671 237.352 136.34 234.729L137.164 231.541C137.422 230.615 138.709 230.615 138.967 231.541L139.791 234.729C140.46 237.301 142.469 239.358 145.096 240.026L148.289 240.849C149.216 241.055 149.216 242.392 148.289 242.649Z" fill="#9FBFFF"/>
<path d="M78.1419 337.529L74.9487 338.352C72.3736 339.02 70.3135 341.026 69.6439 343.648L68.8199 346.837C68.5624 347.762 67.2748 347.762 67.0173 346.837L66.1933 343.648C65.5237 341.077 63.5151 339.02 60.8885 338.352L57.6953 337.529C56.7682 337.272 56.7682 335.986 57.6953 335.729L60.8885 334.906C63.4636 334.237 65.5237 332.232 66.1933 329.609L67.0173 326.421C67.2748 325.495 68.5624 325.495 68.8199 326.421L69.6439 329.609C70.3135 332.18 72.3221 334.237 74.9487 334.906L78.1419 335.729C79.1205 335.986 79.1205 337.272 78.1419 337.529Z" fill="#9FBFFF"/>
<path d="M392.462 406.695L408.119 424.334" stroke="#2B292D" stroke-width="3" stroke-miterlimit="10" stroke-linejoin="round"/>
<path d="M394.37 309.656L315.983 260.236L262.266 332.849L262.42 332.952C260.618 335.472 259.021 338.197 257.734 341.18C256.291 344.42 255.261 347.763 254.643 351.105C252.274 363.345 244.291 373.681 233.373 379.646C224.926 384.223 217.819 391.526 213.493 400.937C211.999 404.228 210.918 407.622 210.248 411.016C207.827 423.204 200.205 433.797 189.286 439.66C183.467 442.746 178.316 447.065 174.248 452.516L173.99 452.311L144.067 492.783L222.454 542.202L247.021 508.982C247.742 508.107 248.36 507.233 249.03 506.256C250.523 504.096 251.811 501.782 252.944 499.314C254.489 495.92 255.622 492.371 256.291 488.874C258.661 476.635 266.644 466.35 277.562 460.384C286.009 455.808 293.116 448.505 297.442 439.094C298.987 435.7 300.12 432.152 300.79 428.655C303.159 416.416 311.142 406.131 322.061 400.165C328.344 396.771 333.855 391.834 338.078 385.663L338.181 385.766L394.37 309.656Z" fill="#82B5A5"/>
<path d="M252.682 323.594C251.858 330.382 250.261 350.592 250.261 355.323C250.313 360.312 258.193 364.22 260.613 351.878C265.97 324.16 274.468 328.222 276.631 315.006" fill="#9FBFFF"/>
<path d="M252.682 323.594C251.858 330.382 250.261 350.592 250.261 355.323C250.313 360.312 258.193 364.22 260.613 351.878C265.97 324.16 274.468 328.222 276.631 315.006" stroke="#2B292D" stroke-width="3" stroke-miterlimit="10" stroke-linejoin="round"/>
<path d="M257.217 484.659L259.482 458.74" stroke="#2B292D" stroke-width="3" stroke-miterlimit="10" stroke-linejoin="round"/>
<path d="M210.197 411.018L205.922 435.239" stroke="#2B292D" stroke-width="3" stroke-miterlimit="10" stroke-linejoin="round"/>
<path d="M302.127 423.154L306.813 396.001" stroke="#2B292D" stroke-width="3" stroke-miterlimit="10" stroke-linejoin="round"/>
<path d="M356.567 360.724L367.743 345.604" stroke="#2B292D" stroke-width="3" stroke-miterlimit="10" stroke-linejoin="round"/>
<path d="M333.133 248.614L319.588 249.18L326.335 257.151" stroke="#2B292D" stroke-width="3" stroke-miterlimit="10" stroke-linejoin="round"/>
<path d="M290.746 250.312L288.841 241.724" stroke="#2B292D" stroke-width="3" stroke-miterlimit="10" stroke-linejoin="round"/>
<path d="M450.818 257.151L460.655 250.157V260.237" stroke="#2B292D" stroke-width="3" stroke-miterlimit="10" stroke-linejoin="round"/>
<path d="M365.271 199.553L342.559 186.491L362.336 185.154L365.271 199.553Z" fill="#2B292D"/>
<path d="M358.986 189.374C359.449 194.671 363.106 199.402 368.514 200.996C375.57 203.053 382.935 199.042 385.046 191.997L386.334 187.883C383.089 184.488 379.638 179.912 374.076 178.112C369.853 176.775 364.239 180.323 360.582 180.58L359.552 184.488C358.986 186.134 358.831 187.78 358.986 189.374Z" fill="#9FBFFF"/>
<path d="M375.107 178.059C378.763 180.681 383.09 182.378 387.725 182.841L375.107 178.059Z" fill="#9FBFFF"/>
<path d="M375.107 178.059C378.763 180.681 383.09 182.378 387.725 182.841" stroke="#2B292D" stroke-width="3" stroke-miterlimit="10" stroke-linejoin="round"/>
<path d="M470.231 185.465C475.587 185.928 486.094 187.728 492.326 201.201" stroke="#2B292D" stroke-width="3" stroke-miterlimit="10" stroke-linejoin="round"/>
<path d="M507.469 552.798C501.598 552.798 469.975 542.153 469.975 542.153C469.975 542.153 501.546 531.508 507.469 531.508C513.392 531.508 518.13 536.29 518.13 542.153C518.13 548.015 513.34 552.798 507.469 552.798Z" stroke="#FCF0E3" stroke-width="3" stroke-miterlimit="10" stroke-linejoin="round"/>
<path d="M505.718 526.674C501.186 530.377 469.975 542.153 469.975 542.153C469.975 542.153 487.641 513.921 492.224 510.218C496.808 506.515 503.503 507.184 507.212 511.709C510.92 516.235 510.302 522.972 505.718 526.674Z" stroke="#FCF0E3" stroke-width="3" stroke-miterlimit="10" stroke-linejoin="round"/>
<path d="M139.018 548.168C139.327 542.305 151.687 511.398 151.687 511.398C151.687 511.398 160.597 543.488 160.288 549.35C159.979 555.213 154.932 559.687 149.061 559.378C143.189 559.07 138.709 554.03 139.018 548.168Z" stroke="#FCF0E3" stroke-width="3" stroke-miterlimit="10" stroke-linejoin="round"/>
<path d="M165.285 547.807C161.783 543.076 151.689 511.347 151.689 511.347C151.689 511.347 178.934 530.477 182.436 535.208C185.938 539.939 184.908 546.573 180.17 550.07C175.432 553.567 168.736 552.539 165.285 547.807Z" stroke="#FCF0E3" stroke-width="3" stroke-miterlimit="10" stroke-linejoin="round"/>
</svg>
