<svg width="24" height="24" viewBox="0 0 24 24" fill="none" xmlns="http://www.w3.org/2000/svg">
<path fill-rule="evenodd" clip-rule="evenodd" d="M5.1106 15.7345C5.1106 15.7345 5.1106 15.7345 5.1106 15.7349C5.1106 15.7345 5.1106 15.7345 5.1106 15.7345ZM5.12537 15.7566V15.7603C5.12537 15.7607 5.12537 15.7607 5.12537 15.7607C5.12537 15.7607 5.12537 15.7592 5.12537 15.7566ZM10.3817 19.4121C11.1148 19.5292 11.8883 19.5292 12.6213 19.4121V18.1326C12.6213 17.8033 12.8313 17.5126 13.1407 17.4155C13.9253 17.1695 14.6399 16.7494 15.2624 16.1674C15.4982 15.9446 15.8518 15.9056 16.1318 16.0714L17.2221 16.7198C17.4357 16.4558 17.6273 16.1775 17.8004 15.8876C17.8446 15.8081 17.8925 15.7226 17.9441 15.6367C18.0988 15.3525 18.2387 15.0555 18.3566 14.7502L17.2626 14.1014C16.9863 13.9356 16.8427 13.6041 16.9164 13.2838C17.0158 12.8484 17.0674 12.4164 17.0674 11.9994C17.0674 11.5921 17.0195 11.1705 16.9237 10.7471C16.8537 10.4265 16.9974 10.0957 17.2773 9.93183L18.3714 9.2909C18.2461 8.95451 18.0914 8.62673 17.9146 8.31171C17.9109 8.30646 17.8962 8.27683 17.8925 8.27158C17.8851 8.25883 17.8704 8.23445 17.863 8.22095C17.6825 7.90668 17.4799 7.60366 17.2516 7.31601L16.1575 7.95693C15.8776 8.12082 15.524 8.07994 15.2882 7.85568C14.6694 7.26988 13.9253 6.8296 13.1407 6.58321C12.8313 6.48608 12.6213 6.19543 12.6213 5.86615V4.58694C11.8883 4.46993 11.1148 4.46993 10.3817 4.58694V5.86615C10.3817 6.19543 10.1681 6.48608 9.85868 6.58321C9.07409 6.8296 8.35948 7.24963 7.74065 7.83167C7.50122 8.05444 7.1476 8.09344 6.86765 7.92768L5.77732 7.27926C5.56736 7.54328 5.37581 7.82192 5.20268 8.11144C4.98167 8.4741 4.79749 8.85475 4.64647 9.2489L5.7368 9.8977C6.01675 10.0635 6.15672 10.395 6.08305 10.7153C5.9836 11.1507 5.93571 11.5827 5.93571 11.9994C5.93571 12.407 5.9836 12.8285 6.07568 13.2519C6.14567 13.5726 6.0057 13.9034 5.72575 14.0673L4.62805 14.7082C4.73856 14.9936 4.86748 15.279 5.01482 15.5614L5.12165 15.7519C5.12533 15.7605 5.1327 15.7695 5.13638 15.7781C5.31687 16.0924 5.52315 16.3954 5.74785 16.6831L6.84555 16.0421C7.12549 15.8783 7.47543 15.9191 7.71486 16.1434C8.33001 16.7292 9.07409 17.1695 9.85868 17.4155C10.1681 17.5126 10.3817 17.8033 10.3817 18.1326V19.4121ZM11.5016 21C10.8091 21 10.1277 20.9179 9.46832 20.7555C9.14048 20.6737 8.90842 20.373 8.90842 20.0268V18.6625C8.27116 18.4041 7.67075 18.0467 7.12558 17.6075L5.9579 18.2912C5.66322 18.4644 5.28749 18.4078 5.05543 18.1543C4.60235 17.6626 4.20453 17.1237 3.8767 16.5518C3.85828 16.5248 3.83986 16.4955 3.82513 16.4603L3.7183 16.2762C3.42362 15.7125 3.19156 15.1424 3.02948 14.5747C2.93371 14.242 3.07737 13.8869 3.37205 13.7143L4.53605 13.0318C4.48816 12.6845 4.46238 12.3391 4.46238 11.9993C4.46238 11.6468 4.48816 11.2875 4.54342 10.9256L3.37942 10.2341C3.08473 10.0593 2.94844 9.70155 3.04422 9.36928C3.25786 8.6526 3.55991 7.96667 3.943 7.331C4.26715 6.78571 4.65392 6.2708 5.09227 5.80314C5.32801 5.5515 5.70005 5.49674 5.99473 5.67226L7.16242 6.36381C7.69653 5.9329 8.28222 5.58863 8.90842 5.33586V3.97226C8.90842 3.62611 9.14048 3.32534 9.46832 3.24358C10.7833 2.91881 12.2199 2.91881 13.5313 3.24358C13.8628 3.32534 14.0948 3.62611 14.0948 3.97226V5.33661C14.7284 5.595 15.3325 5.95203 15.874 6.39156L17.0417 5.70789C17.3401 5.53425 17.7121 5.59125 17.9478 5.84477C18.4009 6.33756 18.7987 6.8776 19.1266 7.45064C19.1487 7.48589 19.1708 7.52227 19.1892 7.55827C19.5244 8.15456 19.7859 8.77898 19.9701 9.42328C20.0659 9.75593 19.9259 10.1118 19.6312 10.2847L18.4635 10.9673C18.5151 11.3145 18.5409 11.6599 18.5409 11.9993C18.5409 12.3522 18.5114 12.7115 18.4562 13.0734L19.6202 13.765C19.9148 13.9397 20.0548 14.2968 19.9554 14.6287C19.7786 15.2336 19.5318 15.822 19.2223 16.3785C19.1671 16.479 19.1155 16.5721 19.0603 16.6617C18.7324 17.2133 18.3457 17.7286 17.911 18.1955C17.6753 18.4476 17.2995 18.5016 17.0048 18.3264L15.8408 17.6353C15.3031 18.0662 14.7211 18.4104 14.0948 18.6632V20.0268C14.0948 20.373 13.8628 20.6737 13.5313 20.7555C12.8756 20.9179 12.1905 21 11.5016 21Z" fill="#617AF9"/>
<path fill-rule="evenodd" clip-rule="evenodd" d="M11.5016 10.1394C10.4923 10.1394 9.67456 10.9738 9.67456 11.9988C9.67456 13.0241 10.4923 13.8585 11.5016 13.8585C12.5072 13.8585 13.3286 13.0241 13.3286 11.9988C13.3286 10.9738 12.5072 10.1394 11.5016 10.1394ZM11.5016 14.984C9.88448 14.984 8.56946 13.6451 8.56946 11.9991C8.56946 10.3535 9.88448 9.01465 11.5016 9.01465C13.1186 9.01465 14.4337 10.3535 14.4337 11.9991C14.4337 13.6451 13.1186 14.984 11.5016 14.984Z" fill="#617AF9"/>
</svg>
