<svg width="20" height="12" viewBox="0 0 20 12" fill="none" xmlns="http://www.w3.org/2000/svg">
<path opacity="0.5" d="M19.7408 5.066C19.5651 4.85885 15.3669 0 10.0001 0C4.63315 0 0.435139 4.85885 0.259063 5.06621C-0.0863881 5.47238 -0.0863881 6.06174 0.259266 6.46832C0.435139 6.67547 4.63315 11.5341 10.0001 11.5341C15.3669 11.5341 19.5651 6.67506 19.741 6.46791C20.0864 6.06174 20.0864 5.47238 19.7408 5.066ZM11.6394 2.91876C12.0003 2.72177 12.5036 2.94781 12.7633 3.42344C13.0231 3.89927 12.941 4.44476 12.5801 4.64175C12.2195 4.83895 11.716 4.61271 11.4561 4.13708C11.1965 3.66125 11.2784 3.11576 11.6394 2.91876ZM10.0001 9.77376C6.25114 9.77376 3.09619 6.8946 2.00419 5.76706C2.7416 5.00548 4.42052 3.44598 6.58725 2.5134C6.16463 3.15638 5.91686 3.92465 5.91686 4.75162C5.91686 7.0067 7.74485 8.83469 9.99992 8.83469C12.255 8.83469 14.0832 7.0067 14.0832 4.75162C14.0832 3.92465 13.8356 3.15638 13.413 2.5134C15.5797 3.44618 17.2585 5.00548 17.9959 5.76706C16.9039 6.89521 13.7489 9.77376 10.0001 9.77376Z" fill="#A4A4A7"/>
</svg>
